<?xml version="1.0" encoding="UTF-8" standalone="no"?>
<svg
   xmlns:dc="http://purl.org/dc/elements/1.1/"
   xmlns:cc="http://creativecommons.org/ns#"
   xmlns:rdf="http://www.w3.org/1999/02/22-rdf-syntax-ns#"
   xmlns:svg="http://www.w3.org/2000/svg"
   xmlns="http://www.w3.org/2000/svg"
   xmlns:sodipodi="http://sodipodi.sourceforge.net/DTD/sodipodi-0.dtd"
   xmlns:inkscape="http://www.inkscape.org/namespaces/inkscape"
   style="height: 512px; width: 512px;"
   viewBox="0 0 512 512"
   version="1.1"
   id="svg8"
   sodipodi:docname="crown-coin.svg"
   inkscape:version="0.92.4 5da689c313, 2019-01-14">
  <metadata
     id="metadata14">
    <rdf:RDF>
      <cc:Work
         rdf:about="">
        <dc:format>image/svg+xml</dc:format>
        <dc:type
           rdf:resource="http://purl.org/dc/dcmitype/StillImage" />
        <dc:title />
      </cc:Work>
    </rdf:RDF>
  </metadata>
  <defs
     id="defs12" />
  <sodipodi:namedview
     pagecolor="#ffffff"
     bordercolor="#666666"
     borderopacity="1"
     objecttolerance="10"
     gridtolerance="10"
     guidetolerance="10"
     inkscape:pageopacity="0"
     inkscape:pageshadow="2"
     inkscape:window-width="1477"
     inkscape:window-height="1026"
     id="namedview10"
     showgrid="false"
     inkscape:zoom="1.3037281"
     inkscape:cx="204.68676"
     inkscape:cy="322.32771"
     inkscape:window-x="0"
     inkscape:window-y="0"
     inkscape:window-maximized="0"
     inkscape:current-layer="g6" />
  <path
     d="M0 0h512v512H0z"
     fill="url(#pattern)"
     fill-opacity="1"
     id="path2" />
  <g
     class=""
     id="g6">
    <path
       d="m 263.15637,81.904404 c -65.823,0 -130.62721,16.233907 -173.079214,45.572906 C 47.625156,156.81531 18.605,188.653 18.605,231.697 c 0,43.045 25.184,82.552 67.635,111.89 42.452,29.34 101.886,47.874 167.71,47.874 65.826,0 125.26,-18.533 167.712,-47.872 42.452,-29.34 67.64,-68.846 67.64,-111.89 0,-43.045 -30.55722,-74.88269 -73.00922,-104.21969 C 373.84078,98.139311 328.98037,81.904404 263.15637,81.904404 Z M 255.654,93.119 h 0.153 l 1.084,0.01 -0.154,18.686 -1.002,-0.007 -4.937,0.038 -0.043,0.002 -5.063,0.125 h -0.026 l -4.88,0.203 -2.11,0.12 -1.076,-18.657 2.2,-0.126 0.075,-0.004 0.076,-0.004 5.1,-0.21 0.075,-0.003 0.078,-0.002 5.133,-0.126 0.076,-0.002 h 0.076 l 5.166,-0.043 z m 20.373,0.646 0.702,0.04 0.077,0.005 0.076,0.004 5.027,0.375 0.076,0.003 0.077,0.008 4.988,0.454 0.08,0.008 0.075,0.008 4.947,0.53 0.078,0.01 0.077,0.01 2.937,0.366 -2.307,18.545 -2.878,-0.357 -0.06,-0.007 -4.64,-0.498 -0.046,-0.004 -4.927,-0.448 -0.016,-0.002 -4.802,-0.355 -0.617,-0.036 1.077,-18.658 z m -57.66,1.552 2.307,18.547 -4.1,0.51 -0.02,0.002 -4.63,0.654 -4.586,0.728 -0.055,0.01 -4.623,0.812 -3.234,-18.408 4.678,-0.822 0.076,-0.014 0.078,-0.012 4.818,-0.763 0.078,-0.01 0.076,-0.013 4.864,-0.685 0.078,-0.012 0.076,-0.01 4.12,-0.512 z m 95.95,3.29 2.693,0.523 0.078,0.015 0.076,0.017 4.676,0.984 0.078,0.018 0.078,0.018 4.623,1.056 0.077,0.018 0.078,0.02 4.57,1.128 0.08,0.02 0.077,0.02 1.662,0.44 -4.793,18.065 -1.503,-0.4 -0.027,-0.01 -4.47,-1.1 -4.526,-1.036 -0.016,-0.004 -4.433,-0.933 -2.622,-0.506 3.545,-18.35 z m -133.766,3.69 4.48,18.143 -0.407,0.103 -0.027,0.006 -4.285,1.138 -4.22,1.197 h -0.002 l -4.242,1.285 -0.045,0.014 -4.075,1.316 -5.74,-17.787 4.12,-1.33 0.08,-0.026 0.08,-0.023 4.403,-1.336 0.078,-0.023 0.08,-0.024 4.46,-1.264 0.08,-0.024 0.077,-0.02 4.516,-1.2 0.077,-0.018 0.08,-0.02 0.434,-0.107 z m 171.137,6.165 2.456,0.842 0.082,0.027 0.078,0.03 4.222,1.533 0.08,0.03 0.08,0.028 4.16,1.598 0.08,0.03 0.08,0.033 4.093,1.66 0.082,0.032 0.08,0.035 2.51,1.072 -7.344,17.186 -2.348,-1.004 -0.04,-0.018 -3.892,-1.578 -0.058,-0.023 -4.074,-1.563 -0.026,-0.01 -3.974,-1.44 -2.385,-0.817 6.058,-17.682 z m -208.003,6.1 7.343,17.185 -3.343,1.428 -0.045,0.02 -3.85,1.732 -3.685,1.744 -3.587,1.785 -0.055,0.027 -1.692,0.885 -8.66,-16.56 1.747,-0.915 0.082,-0.043 0.083,-0.04 3.815,-1.902 0.084,-0.04 0.082,-0.04 3.887,-1.84 0.083,-0.04 0.082,-0.036 3.96,-1.78 0.08,-0.038 0.08,-0.035 3.51,-1.498 z m 243.587,9.248 0.08,0.042 0.084,0.044 0.082,0.045 3.67,2.015 0.084,0.047 0.082,0.05 3.593,2.067 0.084,0.048 0.083,0.05 3.516,2.126 0.083,0.052 0.086,0.053 3.432,2.177 0.086,0.055 0.086,0.056 1.744,1.16 -10.35,15.563 -1.667,-1.108 -3.31,-2.098 -0.03,-0.02 -3.282,-1.982 -3.43,-1.975 -3.453,-1.896 -0.016,-0.007 -0.09,-0.05 2.386,-4.34 6.365,-12.172 z m -277.98,8.78 6.73,10.613 3.388,5.098 -3.27,2.177 -3.103,2.162 -3.062,2.243 -0.034,0.023 -2.84,2.184 -2.05,1.65 -11.73,-14.55 2.133,-1.72 0.086,-0.068 0.087,-0.068 3.102,-2.38 0.084,-0.067 0.088,-0.065 3.188,-2.332 0.086,-0.062 0.086,-0.06 3.27,-2.282 0.087,-0.06 0.085,-0.057 3.354,-2.232 0.085,-0.056 0.085,-0.055 0.06,-0.037 z m 310.696,13.123 2.14,1.81 0.087,0.075 0.086,0.076 2.835,2.525 0.088,0.077 0.086,0.082 2.743,2.568 0.088,0.084 0.087,0.084 2.65,2.615 0.088,0.087 0.086,0.09 2.555,2.656 0.088,0.092 0.086,0.094 0.62,0.682 -13.818,12.582 -0.54,-0.592 -2.384,-2.478 -2.455,-2.424 -2.555,-2.395 -2.74,-2.437 -0.037,-0.033 -1.962,-1.66 12.078,-14.262 z m -341.268,11.935 13.47,12.954 -0.8,0.834 -2.275,2.5 -2.164,2.515 -2.093,2.577 -1.98,2.588 -1.71,2.375 -15.173,-10.912 1.777,-2.47 0.082,-0.114 0.085,-0.11 2.16,-2.82 0.08,-0.11 0.087,-0.104 2.26,-2.782 0.083,-0.103 0.088,-0.1 2.36,-2.742 0.084,-0.098 0.087,-0.095 2.46,-2.7 0.083,-0.095 0.087,-0.092 0.862,-0.895 z m 368.134,17.452 1.01,1.498 0.08,0.12 0.08,0.124 1.845,2.933 0.077,0.125 0.076,0.13 1.74,2.968 0.075,0.13 0.072,0.136 1.63,3.002 0.073,0.136 0.07,0.14 1.518,3.036 0.07,0.14 0.068,0.147 1.32,2.88 -16.99,7.784 -1.246,-2.718 -1.385,-2.77 -1.49,-2.747 -1.59,-2.715 -1.646,-2.617 -0.955,-1.42 15.5,-10.443 z m -391.147,15.68 16.993,7.78 -0.93,2.028 -1.166,2.803 -1.04,2.767 -0.953,2.84 -0.848,2.873 -0.69,2.71 -18.11,-4.622 0.733,-2.876 0.043,-0.168 0.05,-0.166 0.94,-3.186 0.05,-0.164 0.052,-0.162 1.06,-3.158 0.053,-0.16 0.06,-0.156 1.175,-3.13 0.058,-0.154 0.063,-0.152 1.29,-3.1 0.062,-0.148 0.07,-0.148 0.985,-2.153 z m 407.344,21.634 0.317,1.463 0.037,0.174 0.032,0.175 0.574,3.263 0.03,0.178 0.024,0.178 0.45,3.287 0.025,0.18 0.017,0.18 0.322,3.31 0.016,0.18 0.012,0.182 0.196,3.332 0.01,0.182 0.003,0.183 0.065,3.353 0.004,0.182 -0.004,0.18 -0.01,0.542 -18.686,-0.363 0.006,-0.354 -0.056,-2.984 -0.176,-3.008 -0.29,-2.94 -0.402,-2.94 -0.5,-2.84 -0.287,-1.336 18.27,-3.938 z m -416.736,18.176 18.686,0.363 -0.027,1.442 0.056,2.976 0.175,3.005 0.29,2.953 0.403,2.94 0.502,2.85 0.055,0.26 -18.27,3.938 -0.087,-0.404 -0.037,-0.174 -0.03,-0.175 -0.575,-3.264 -0.03,-0.177 -0.025,-0.178 -0.45,-3.287 -0.024,-0.18 -0.018,-0.18 -0.322,-3.31 -0.018,-0.18 -0.01,-0.18 -0.197,-3.335 -0.008,-0.182 -0.004,-0.18 -0.065,-3.354 -0.004,-0.18 0.003,-0.183 0.03,-1.623 z m 398.24,18.904 18.27,3.938 -0.156,0.718 -0.037,0.172 -0.042,0.17 -0.82,3.213 -0.04,0.168 -0.052,0.166 -0.94,3.185 -0.048,0.164 -0.053,0.16 -1.06,3.157 -0.054,0.16 -0.057,0.158 -1.176,3.13 -0.058,0.154 -0.064,0.15 -1.293,3.1 -0.062,0.15 -0.066,0.147 -0.537,1.17 -16.99,-7.785 0.476,-1.043 1.16,-2.786 1.055,-2.803 0.946,-2.82 0.85,-2.876 0.732,-2.875 0.117,-0.546 z m -373.05,14.066 0.267,0.643 1.28,2.797 1.375,2.748 1.488,2.744 1.605,2.74 1.652,2.622 0.334,0.496 -15.5,10.443 -0.404,-0.602 -0.082,-0.12 -0.08,-0.125 -1.844,-2.93 -0.078,-0.128 -0.077,-0.13 -1.737,-2.966 -0.076,-0.132 -0.072,-0.133 -1.63,-3.002 -0.073,-0.138 -0.07,-0.14 -1.518,-3.034 -0.07,-0.142 -0.067,-0.144 -1.406,-3.067 -0.066,-0.148 -0.062,-0.15 -0.338,-0.81 17.252,-7.19 z m 359.244,16.585 15.5,10.443 -0.338,0.5 -0.08,0.117 -0.082,0.115 -2.057,2.86 -0.082,0.113 -0.083,0.11 -2.158,2.822 -0.085,0.107 -0.086,0.107 -2.26,2.78 -0.085,0.104 -0.085,0.1 -2.36,2.742 -0.086,0.098 -0.088,0.095 -2.457,2.7 -0.087,0.092 -0.088,0.092 -0.11,0.115 -10.98,-10.557 -2.556,-2.326 0.06,-0.07 0.03,-0.028 2.27,-2.495 2.2,-2.553 2.087,-2.572 2.004,-2.617 1.872,-2.602 0.268,-0.395 z m -340.594,11.85 1.27,1.394 2.38,2.475 2.454,2.42 2.597,2.434 2.66,2.364 1.213,1.03 -12.078,14.263 -1.312,-1.11 -0.088,-0.078 -0.086,-0.077 -2.836,-2.523 -0.088,-0.08 -0.086,-0.08 -2.744,-2.57 -0.088,-0.083 -0.086,-0.086 -2.65,-2.612 -0.088,-0.086 -0.086,-0.09 -2.555,-2.658 -0.09,-0.092 -0.084,-0.093 -1.35,-1.482 13.82,-12.584 z M 19.52,300.64 c 1.657,12.822 5.554,25.25 11.478,37.098 v -20.302 c -4.22,-5.423 -8.05,-11.03 -11.478,-16.795 z m 468.863,0.006 c -4.43,7.45 -9.534,14.63 -15.27,21.497 v 22.634 c 8.07,-13.928 13.28,-28.747 15.27,-44.13 z m -81.127,4.72 11.73,14.552 -2.976,2.398 -0.086,0.07 -0.088,0.067 -3.102,2.383 -0.086,0.066 -0.087,0.063 -3.187,2.334 -0.086,0.06 -0.086,0.062 -3.27,2.28 -0.086,0.06 -0.086,0.058 -2.512,1.67 -10.35,-15.562 2.432,-1.615 3.06,-2.135 3.012,-2.203 2.963,-2.276 2.893,-2.333 z m -290.49,9.363 2.568,1.707 3.246,2.06 3.338,2.017 3.465,1.996 2.69,1.476 -8.995,16.383 -2.8,-1.538 -0.083,-0.047 -0.084,-0.047 -3.59,-2.07 -0.086,-0.05 -0.082,-0.05 -3.516,-2.125 -0.086,-0.05 -0.084,-0.053 -3.436,-2.178 -0.085,-0.055 -0.084,-0.056 -2.644,-1.757 10.35,-15.564 z m 260.884,10.188 8.66,16.56 -2.705,1.415 -0.082,0.043 -0.084,0.043 -3.817,1.897 -0.082,0.04 -0.08,0.04 -3.89,1.842 -0.08,0.038 -0.084,0.037 -3.957,1.78 -0.08,0.038 -0.083,0.034 -2.512,1.074 -7.345,-17.185 2.48,-1.06 0.03,-0.014 3.732,-1.68 3.682,-1.743 3.724,-1.853 0.033,-0.018 z m -229.605,6.848 3.47,1.482 0.034,0.014 3.88,1.572 0.05,0.02 3.915,1.5 4.056,1.474 1.363,0.467 -6.057,17.68 -1.436,-0.493 -0.08,-0.027 -0.08,-0.03 -4.22,-1.53 -0.083,-0.03 -0.08,-0.03 -4.158,-1.597 -0.08,-0.03 -0.08,-0.034 -4.095,-1.658 -0.08,-0.034 -0.082,-0.035 -3.504,-1.496 7.345,-17.184 z m -98.357,6.203 v 27.827 c 5.04,5.95 10.644,11.676 16.77,17.146 v -30.66 c -5.92,-4.545 -11.517,-9.326 -16.77,-14.314 z m 294.917,1.024 6.057,17.682 -0.803,0.275 -0.08,0.03 -0.08,0.024 -4.345,1.402 -0.078,0.026 -0.08,0.023 -4.402,1.334 -0.08,0.024 -0.078,0.022 -4.46,1.268 -0.08,0.02 -0.077,0.022 -3.903,1.036 -4.793,-18.065 3.744,-0.992 0.053,-0.016 4.382,-1.245 0.027,-0.008 4.23,-1.285 0.015,-0.004 4.11,-1.326 0.72,-0.248 z m 109.82,2.48 c -5.276,4.76 -10.873,9.318 -16.77,13.65 v 31.118 c 6.078,-5.145 11.676,-10.533 16.77,-16.133 z m -272.376,2.09 2.675,0.707 0.03,0.01 4.337,1.068 4.387,1.006 0.034,0.007 4.554,0.962 1.563,0.3 -3.544,18.35 -1.633,-0.314 -0.078,-0.015 -0.076,-0.016 -4.677,-0.986 -0.078,-0.015 -0.076,-0.018 -4.626,-1.056 -0.078,-0.02 -0.078,-0.016 -4.57,-1.13 -0.08,-0.02 -0.077,-0.02 -2.704,-0.717 4.793,-18.065 z m 127.66,4.47 3.544,18.35 -0.97,0.186 -0.075,0.016 -0.08,0.014 -4.77,0.837 -0.08,0.014 -0.077,0.013 -4.818,0.764 -0.076,0.01 -0.08,0.013 -4.863,0.688 -0.076,0.01 -0.077,0.01 -3.043,0.378 -2.307,-18.545 2.89,-0.358 0.018,-0.002 4.787,-0.678 0.058,-0.008 4.51,-0.715 0.055,-0.01 4.68,-0.823 0.036,-0.006 0.813,-0.157 z m -92.255,2.49 3.95,0.49 0.058,0.007 4.64,0.5 0.057,0.007 4.776,0.436 0.02,0.002 4.632,0.344 -1.383,18.637 -4.652,-0.345 -0.076,-0.008 -0.08,-0.006 -4.985,-0.455 -0.078,-0.006 -0.076,-0.008 -4.95,-0.534 -0.076,-0.008 -0.076,-0.01 -4.01,-0.498 2.31,-18.547 z m 56.414,1.904 1.075,18.658 -3.28,0.19 -0.077,0.003 -0.076,0.003 -5.1,0.21 -0.076,0.003 -0.076,0.002 -5.133,0.125 -0.078,0.002 -0.077,0.002 -5.166,0.04 -0.077,-9.343 -0.076,9.344 -2.162,-0.018 0.154,-18.687 2.084,0.017 4.936,-0.04 0.043,-0.002 4.935,-0.12 h 0.01 l 5.023,-0.207 3.19,-0.182 z M 85.145,365.21 v 32.49 c 0.367,0.258 0.725,0.52 1.094,0.775 5.838,4.034 12.007,7.855 18.46,11.46 v -33.69 c -6.772,-3.45 -13.3,-7.132 -19.554,-11.034 z m 333.82,2.33 c -6.267,3.756 -12.793,7.296 -19.552,10.61 v 33.862 c 6.84,-3.666 13.367,-7.58 19.55,-11.717 V 367.54 Z m -295.58,17.388 v 34.445 c 6.74,3.066 13.728,5.906 20.944,8.5 v -35.06 c -7.17,-2.402 -14.16,-5.032 -20.943,-7.885 z m 257.34,1.55 c -6.793,2.745 -13.78,5.27 -20.943,7.57 v 35.155 c 7.205,-2.477 14.193,-5.194 20.942,-8.14 V 386.48 Z m -217.708,11.96 v 35.453 c 6.6,1.89 13.352,3.588 20.248,5.07 v -35.774 c -6.872,-1.388 -13.626,-2.973 -20.248,-4.748 z m 178.076,0.996 c -6.625,1.69 -13.38,3.188 -20.246,4.494 v 35.812 c 6.885,-1.392 13.643,-2.986 20.246,-4.783 z m -139.14,6.99 v 35.967 c 6.87,1.06 13.854,1.92 20.942,2.56 v -36.118 c -7.074,-0.6 -14.058,-1.41 -20.943,-2.408 z m 100.204,0.525 c -7.34,0.983 -14.785,1.758 -22.332,2.29 v 36.135 c 7.557,-0.566 15.01,-1.37 22.332,-2.412 V 406.95 Z m -60.572,2.988 v 36.19 c 4.094,0.146 8.217,0.22 12.365,0.22 2.406,0 4.8,-0.033 7.187,-0.082 v -36.192 c -2.388,0.046 -4.782,0.074 -7.186,0.074 -4.144,0 -8.266,-0.074 -12.364,-0.21 z"
       id="path4"
       inkscape:connector-curvature="0"
       style="fill:#e3dbde;fill-opacity:1;stroke:#000000;stroke-width:2.70000005;stroke-miterlimit:4;stroke-dasharray:none;stroke-opacity:1"
       sodipodi:nodetypes="ccscscsccccccccccccccccccccccccccccccccccccccccccccccccccccccccccccccccccccccccccccccccccccccccccccccccccccccccccccccccccccccccccccccccccccccccccccccccccccccccccccccccccccccccccccccccccccccccccccccccccccccccccccccccccccccccccccccccccccccccccccccccccccccccccccccccccccccccccccccccccccccccccccccccccccccccccccccccccccccccccccccccccccccccccccccccccccccccccccccccccccccccccccccccccccccccccccccccccccccccccccccccccccccccccccccccccccccccccccccccccccccccccccccccccccccccccccccccccccccccccccccccccccccccccccccccccccccccccccccccccccccccccccccccccccccccccccccccccccccccccccccccccccccccccccccccccccccccccccccccccccccccccccccccccccccccccccccccccccccccccccccccccccccccccccccccccccccccccccccccccccccccccccccccccccccccccccccccccccccccccccccccccccccccccccccccccccccccccccccccccccccccccccccccccccccccccccccccccccccsccscc" />
    <ellipse
       style="fill:none;fill-opacity:1;stroke:#000000;stroke-width:4.7851243;stroke-linecap:round;stroke-linejoin:miter;stroke-miterlimit:4;stroke-dasharray:none;stroke-dashoffset:0;stroke-opacity:1"
       id="path821"
       cx="253.62711"
       cy="263.76273"
       rx="244.65236"
       ry="182.27948" />
    <path
       style="fill:#ffcc00;fill-opacity:1;stroke:#000000;stroke-width:2.9288137;stroke-linecap:round;stroke-linejoin:miter;stroke-miterlimit:4;stroke-dasharray:none;stroke-dashoffset:0;stroke-opacity:1"
       d="m 231.0056,446.27439 -6.77966,-0.38512 v -19.38732 -19.38733 l -7.32204,-0.80528 c -4.02712,-0.4429 -9.27457,-0.84786 -11.66101,-0.89989 l -4.33899,-0.0946 -0.29741,18.16949 c -0.33706,20.59107 0.42815,19.28821 -9.92492,16.89844 l -5.50648,-1.27108 v -18.66302 -18.66303 l -10.57627,-2.4427 c -5.81695,-1.34348 -11.18644,-2.67622 -11.93221,-2.96164 -1.05115,-0.40229 -1.35593,3.53032 -1.35593,17.49541 0,9.90791 -0.39335,18.01437 -0.87412,18.01437 -0.48076,0 -3.88609,-1.01717 -7.5674,-2.26036 l -6.69328,-2.26035 -0.29701,-18.01086 -0.297,-18.01087 -10.84746,-4.11585 c -5.9661,-2.26373 -11.45763,-4.12474 -12.20339,-4.13557 -1.02535,-0.0149 -1.35593,3.94719 -1.35593,16.25148 0,8.94916 -0.19201,16.27119 -0.4267,16.27119 -0.23468,0 -3.28553,-1.60622 -6.77966,-3.56938 l -6.35296,-3.56937 -0.54238,-16.60563 -0.54237,-16.60562 -10.305083,-5.96373 c -5.667797,-3.28004 -10.901175,-6.20744 -11.629729,-6.50531 -0.996081,-0.40727 -1.399669,3.1027 -1.627119,14.15086 l -0.302475,14.69246 -7.322033,-6.54741 -7.322034,-6.5474 V 364.6742 350.799 l -5.694916,-4.40104 c -3.132203,-2.42056 -7.377111,-6.14094 -9.43313,-8.2675 -2.056018,-2.12657 -4.130595,-3.86648 -4.610169,-3.86648 -0.479575,0 -0.871955,4.6661 -0.871955,10.3691 0,6.33985 -0.404167,10.11931 -1.040109,9.72628 -0.572062,-0.35355 -3.744943,-4.70794 -7.050848,-9.6764 l -6.010738,-9.03359 v -8.97757 -8.97757 l -6.161726,-9.07106 c -3.388948,-4.98908 -6.768041,-9.07106 -7.509095,-9.07106 -1.685935,0 -3.087705,-4.35366 -5.41354,-16.81356 -2.525425,-13.52913 -2.418414,-37.94289 0.225848,-51.52542 l 2.006205,-10.30509 0.705674,14.1017 c 0.755078,15.08897 2.347485,23.39905 6.963408,36.33898 19.928492,55.86606 86.999774,101.85971 169.967984,116.55434 23.82039,4.21887 39.47607,5.28018 68.34265,4.63303 42.69239,-0.95713 73.77805,-6.91619 109.85564,-21.05914 71.39043,-27.9861 115.00276,-77.57372 118.59191,-134.84009 l 0.78183,-12.47458 1.60127,9.22034 c 3.83704,22.0943 0.4707,60.11495 -5.93168,66.99432 -1.52115,1.63448 -5.69597,7.00164 -9.2774,11.92702 l -6.51169,8.95523 v 8.81503 c 0,9.78804 -0.50303,10.97809 -9.97803,23.60576 l -5.20841,6.94143 v -11.00922 c 0,-6.05508 -0.3661,-11.00489 -0.81356,-10.99959 -0.44746,0.005 -3.62378,2.41519 -7.05851,5.35532 -3.43471,2.94011 -7.7059,6.38596 -9.49152,7.65743 l -3.24658,2.31178 v 13.9599 13.9599 l -7.32203,6.21551 -7.32204,6.21552 -0.54237,-14.64917 -0.54237,-14.64916 -11.11865,5.88163 -11.11864,5.88163 -0.008,16.45046 -0.008,16.45046 -7.58596,4.13137 -7.58596,4.13137 v -16.95023 c 0,-15.65225 -0.14537,-16.90353 -1.89831,-16.34034 -1.04407,0.33543 -6.53559,2.26853 -12.20339,4.29575 l -10.30508,3.68587 -0.29694,17.90845 c -0.26158,15.77603 -0.5199,17.99895 -2.16949,18.6684 -1.02991,0.41797 -4.43527,1.65979 -7.56747,2.75961 l -5.69492,1.99968 v -18.45536 c 0,-17.0762 -0.14186,-18.41164 -1.8983,-17.87038 -1.04407,0.32174 -5.31526,1.33938 -9.49153,2.26141 -4.17627,0.92205 -8.69152,1.92135 -10.0339,2.22066 -2.4164,0.53881 -2.44067,0.73146 -2.44067,19.36796 v 18.82375 l -4.61017,0.73289 c -2.5356,0.40308 -5.69674,1.00357 -7.02476,1.33443 l -2.41458,0.60154 -0.29729,-18.82291 -0.2966,-18.82291 -2.71186,0.19207 c -1.49153,0.10565 -7.22712,0.54378 -12.74577,0.97367 l -10.0339,0.7816 v 19.36532 19.36531 h -2.56046 c -1.40825,0 -4.8252,0.31042 -7.59322,0.68981 l -5.03276,0.68982 v -19.67287 -19.67286 h -11.9322 -11.9322 v 19.52542 c 0,10.73899 -0.3661,19.43137 -0.81356,19.31642 -0.44746,-0.11495 -3.86441,-0.38232 -7.59322,-0.59414 z"
       id="path823"
       inkscape:connector-curvature="0" />
    <path
       style="fill:#ffcc00;fill-opacity:1;stroke:#000000;stroke-width:2.9288137;stroke-linecap:round;stroke-linejoin:miter;stroke-miterlimit:4;stroke-dasharray:none;stroke-dashoffset:0;stroke-opacity:1"
       d="m 49.180823,246.12838 c -0.359742,-1.34237 -0.660742,-5.02569 -0.668888,-8.18515 l -0.01481,-5.74448 7.322034,0.32075 7.322034,0.32075 0.542373,6.61963 0.542373,6.61964 -6.031398,1.24477 c -8.027295,1.65669 -8.257433,1.62615 -9.013716,-1.19591 z"
       id="path825"
       inkscape:connector-curvature="0" />
    <path
       style="fill:#ffcc00;fill-opacity:1;stroke:#000000;stroke-width:2.9288137;stroke-linecap:round;stroke-linejoin:miter;stroke-miterlimit:4;stroke-dasharray:none;stroke-dashoffset:0;stroke-opacity:1"
       d="m 57.521723,210.22528 c -2.494096,-0.68719 -4.862915,-1.58436 -5.264041,-1.99371 -0.719674,-0.73442 3.554452,-14.98454 4.494407,-14.98454 0.266677,0 3.350138,1.44638 6.852135,3.21419 l 6.36727,3.21418 -2.212507,6.00615 c -2.39285,6.49572 -2.683874,6.62489 -10.237264,4.54373 z"
       id="path827"
       inkscape:connector-curvature="0" />
    <path
       style="fill:#ffcc00;fill-opacity:1;stroke:#000000;stroke-width:2.9288137;stroke-linecap:round;stroke-linejoin:miter;stroke-miterlimit:4;stroke-dasharray:none;stroke-dashoffset:0;stroke-opacity:1"
       d="m 74.81794,177.15446 c -3.12355,-2.18638 -5.686262,-4.27562 -5.694915,-4.64276 -0.02231,-0.94659 8.907735,-11.80705 9.708382,-11.80705 0.364389,0 2.923064,2.31865 5.685944,5.15255 l 5.023419,5.15254 -4.521824,5.05998 -4.521823,5.05997 z"
       id="path829"
       inkscape:connector-curvature="0" />
    <path
       style="fill:#ffcc00;fill-opacity:1;stroke:#000000;stroke-width:2.9288137;stroke-linecap:round;stroke-linejoin:miter;stroke-miterlimit:4;stroke-dasharray:none;stroke-dashoffset:0;stroke-opacity:1"
       d="m 100.5917,150.18649 c -2.568471,-3.28865 -4.211949,-6.29454 -3.652175,-6.67975 0.559773,-0.38522 3.278875,-2.28683 6.042455,-4.22581 2.76357,-1.93899 5.23372,-3.52543 5.48921,-3.52543 0.2555,0 2.21951,2.64318 4.36447,5.87372 l 3.89993,5.87372 -5.73697,4.33146 -5.73698,4.33146 z"
       id="path831"
       inkscape:connector-curvature="0" />
    <path
       style="fill:#ffcc00;fill-opacity:1;stroke:#000000;stroke-width:2.9288137;stroke-linecap:round;stroke-linejoin:miter;stroke-miterlimit:4;stroke-dasharray:none;stroke-dashoffset:0;stroke-opacity:1"
       d="m 131.9396,130.16745 c -1.82234,-3.61002 -3.15935,-6.64309 -2.97113,-6.74013 6.96966,-3.59367 13.29656,-6.03841 13.87769,-5.36242 1.06709,1.24128 5.6705,12.42019 5.25185,12.75359 -0.19066,0.15184 -3.15879,1.5443 -6.59586,3.09436 l -6.24921,2.81829 z"
       id="path833"
       inkscape:connector-curvature="0" />
    <path
       style="fill:#ffcc00;fill-opacity:1;stroke:#000000;stroke-width:2.9288137;stroke-linecap:round;stroke-linejoin:miter;stroke-miterlimit:4;stroke-dasharray:none;stroke-dashoffset:0;stroke-opacity:1"
       d="m 168.53975,121.92499 c -1.04904,-1.73398 -3.94131,-12.59849 -3.47738,-13.06242 0.26954,-0.26954 3.61821,-1.35748 7.44148,-2.41764 l 6.9514,-1.92757 1.3711,6.12755 c 0.75411,3.37015 1.57238,6.65228 1.81838,7.29362 0.24845,0.64773 -2.45778,1.97375 -6.08803,2.98305 -7.53498,2.09491 -7.36917,2.07416 -8.01695,1.00341 z"
       id="path835"
       inkscape:connector-curvature="0" />
    <path
       style="fill:#ffcc00;fill-opacity:1;stroke:#000000;stroke-width:2.9288137;stroke-linecap:round;stroke-linejoin:miter;stroke-miterlimit:4;stroke-dasharray:none;stroke-dashoffset:0;stroke-opacity:1"
       d="m 202.80735,107.36843 c -0.62473,-3.77694 -0.82044,-7.18385 -0.43491,-7.570906 0.38552,-0.387058 3.72135,-1.041623 7.41295,-1.454588 l 6.712,-0.750845 0.65545,4.166449 c 1.88306,11.96993 2.61097,10.67569 -6.59369,11.72375 l -6.61593,0.75331 z"
       id="path837"
       inkscape:connector-curvature="0" />
    <path
       style="fill:#ffcc00;fill-opacity:1;stroke:#000000;stroke-width:2.9288137;stroke-linecap:round;stroke-linejoin:miter;stroke-miterlimit:4;stroke-dasharray:none;stroke-dashoffset:0;stroke-opacity:1"
       d="m 240.06612,103.67527 c -0.40818,-3.984083 -0.60022,-7.366285 -0.42676,-7.516001 0.17346,-0.149716 3.61031,-0.61524 7.63742,-1.034498 l 7.32204,-0.762286 v 7.679555 7.67956 h -5.33501 c -2.93426,0 -6.03713,0.26943 -6.89528,0.59873 -1.22089,0.46851 -1.72169,-0.97684 -2.30241,-6.64506 z"
       id="path839"
       inkscape:connector-curvature="0" />
    <path
       style="fill:#ffcc00;fill-opacity:1;stroke:#000000;stroke-width:2.9288137;stroke-linecap:round;stroke-linejoin:miter;stroke-miterlimit:4;stroke-dasharray:none;stroke-dashoffset:0;stroke-opacity:1"
       d="m 281.44628,111.10089 -4.0678,-0.4255 v -7.66967 -7.669672 l 4.0678,0.672365 c 2.23728,0.369801 5.81079,0.677737 7.94112,0.684304 l 3.87332,0.01194 -0.81108,5.694913 c -0.4461,3.1322 -0.84672,6.54915 -0.89028,7.59322 -0.0818,1.96087 -0.99944,2.06142 -10.11308,1.1081 z"
       id="path841"
       inkscape:connector-curvature="0" />
    <path
       style="fill:#ffcc00;fill-opacity:1;stroke:#000000;stroke-width:2.9288137;stroke-linecap:round;stroke-linejoin:miter;stroke-miterlimit:4;stroke-dasharray:none;stroke-dashoffset:0;stroke-opacity:1"
       d="m 319.68356,117.10281 c -2.68474,-0.58543 -5.24134,-1.40569 -5.68132,-1.82278 -1.2084,-1.14555 1.38907,-14.24325 2.81418,-14.19043 0.68201,0.0253 3.92477,0.68438 7.20613,1.46467 6.64384,1.57987 6.8611,2.13988 4.39016,11.31624 -1.30412,4.84313 -1.31817,4.84833 -8.72915,3.2323 z"
       id="path843"
       inkscape:connector-curvature="0" />
    <path
       style="fill:#ffcc00;fill-opacity:1;stroke:#000000;stroke-width:2.9288137;stroke-linecap:round;stroke-linejoin:miter;stroke-miterlimit:4;stroke-dasharray:none;stroke-dashoffset:0;stroke-opacity:1"
       d="m 355.13663,127.65145 c -3.47031,-1.29556 -6.31742,-2.80893 -6.32693,-3.36305 -0.01,-0.55411 0.83486,-3.82189 1.87636,-7.26172 2.11542,-6.98676 1.83842,-6.92516 11.44533,-2.54494 l 5.02409,2.29071 -2.8546,6.61729 -2.8546,6.61728 z"
       id="path845"
       inkscape:connector-curvature="0" />
    <path
       style="fill:#ffcc00;fill-opacity:1;stroke:#000000;stroke-width:2.9288137;stroke-linecap:round;stroke-linejoin:miter;stroke-miterlimit:4;stroke-dasharray:none;stroke-dashoffset:0;stroke-opacity:1"
       d="m 387.73998,143.46348 c -2.84016,-1.6666 -5.42608,-3.29233 -5.7465,-3.61275 -0.89241,-0.89241 5.23256,-12.77319 6.58504,-12.77319 0.96477,0 10.72283,5.65442 12.35423,7.1588 0.40675,0.37508 -7.20064,12.43134 -7.76874,12.31197 -0.14306,-0.0301 -2.58387,-1.41824 -5.42403,-3.08483 z"
       id="path847"
       inkscape:connector-curvature="0" />
    <path
       style="fill:#ffcc00;fill-opacity:1;stroke:#000000;stroke-width:2.9288137;stroke-linecap:round;stroke-linejoin:miter;stroke-miterlimit:4;stroke-dasharray:none;stroke-dashoffset:0;stroke-opacity:1"
       d="m 415.8727,164.44124 -5.23459,-4.77987 4.59083,-5.44446 c 2.52496,-2.99445 4.89888,-5.44446 5.27537,-5.44446 0.3765,0 2.98562,2.33622 5.79806,5.19159 l 5.11352,5.19159 -5.1543,5.03274 -5.1543,5.03274 z"
       id="path849"
       inkscape:connector-curvature="0" />
    <path
       style="fill:#ffcc00;fill-opacity:1;stroke:#000000;stroke-width:2.9288137;stroke-linecap:round;stroke-linejoin:miter;stroke-miterlimit:4;stroke-dasharray:none;stroke-dashoffset:0;stroke-opacity:1"
       d="m 60.373917,278.83218 c -1.837483,-3.64004 -3.162552,-6.79657 -2.944599,-7.01452 0.217954,-0.21796 3.144757,-1.61179 6.504007,-3.09741 l 6.107729,-2.70113 2.942188,5.10548 c 1.618204,2.80801 3.131265,5.44872 3.362358,5.86825 0.424779,0.77114 -10.316035,8.45757 -11.818382,8.45757 -0.446833,0 -2.315819,-2.97821 -4.153301,-6.61824 z"
       id="path851"
       inkscape:connector-curvature="0" />
    <path
       style="fill:#ffcc00;fill-opacity:1;stroke:#000000;stroke-width:2.9288137;stroke-linecap:round;stroke-linejoin:miter;stroke-miterlimit:4;stroke-dasharray:none;stroke-dashoffset:0;stroke-opacity:1"
       d="m 84.720827,310.31773 -5.539007,-5.54662 5.263801,-4.92367 5.263801,-4.92367 4.783199,4.21248 c 2.63076,2.31686 4.810425,4.70061 4.843699,5.29722 0.03328,0.59661 -1.995322,3.41262 -4.507993,6.25781 l -4.568492,5.17306 z"
       id="path853"
       inkscape:connector-curvature="0" />
    <path
       style="fill:#ffcc00;fill-opacity:1;stroke:#000000;stroke-width:2.9288137;stroke-linecap:round;stroke-linejoin:miter;stroke-miterlimit:4;stroke-dasharray:none;stroke-dashoffset:0;stroke-opacity:1"
       d="m 115.67504,333.86868 c -3.23938,-1.94519 -5.88978,-3.8835 -5.88978,-4.30737 0,-0.42386 1.66906,-3.37167 3.70904,-6.55069 l 3.70903,-5.78003 6.12324,3.81496 6.12324,3.81496 -3.12296,5.76594 c -1.71763,3.17127 -3.49175,5.99386 -3.9425,6.27243 -0.45074,0.27858 -3.46993,-1.08502 -6.70931,-3.0302 z"
       id="path855"
       inkscape:connector-curvature="0" />
    <path
       style="fill:#ffcc00;fill-opacity:1;stroke:#000000;stroke-width:2.9288137;stroke-linecap:round;stroke-linejoin:miter;stroke-miterlimit:4;stroke-dasharray:none;stroke-dashoffset:0;stroke-opacity:1"
       d="m 150.26479,350.86539 -7.24928,-2.69222 2.83553,-6.68341 c 1.55954,-3.67588 2.89827,-6.79386 2.97495,-6.92886 0.23231,-0.40896 11.89196,4.15279 12.62156,4.93809 0.37358,0.4021 -0.35863,3.72978 -1.62712,7.39485 l -2.30636,6.66376 z"
       id="path857"
       inkscape:connector-curvature="0" />
    <path
       style="fill:#ffcc00;fill-opacity:1;stroke:#000000;stroke-width:2.9288137;stroke-linecap:round;stroke-linejoin:miter;stroke-miterlimit:4;stroke-dasharray:none;stroke-dashoffset:0;stroke-opacity:1"
       d=""
       id="path859"
       inkscape:connector-curvature="0" />
    <path
       style="fill:#ffcc00;fill-opacity:1;stroke:#000000;stroke-width:2.9288137;stroke-linecap:round;stroke-linejoin:miter;stroke-miterlimit:4;stroke-dasharray:none;stroke-dashoffset:0;stroke-opacity:1"
       d="m 185.89682,361.91696 c -2.8844,-0.79263 -5.476,-1.67279 -5.75911,-1.9559 -0.44806,-0.44806 2.63873,-12.65659 3.42847,-13.55989 0.76396,-0.87381 13.54111,2.54926 13.54111,3.62774 0,0.67604 -0.55552,3.99533 -1.23449,7.37619 -1.37061,6.82475 -1.44196,6.85702 -9.97598,4.51186 z"
       id="path861"
       inkscape:connector-curvature="0" />
    <path
       style="fill:#ffcc00;fill-opacity:1;stroke:#000000;stroke-width:2.9288137;stroke-linecap:round;stroke-linejoin:miter;stroke-miterlimit:4;stroke-dasharray:none;stroke-dashoffset:0;stroke-opacity:1"
       d="m 222.18494,368.17461 -4.75286,-0.4222 0.73936,-7.21659 c 0.40665,-3.96913 0.89753,-7.37476 1.09085,-7.56808 0.19332,-0.19332 3.6112,-0.0175 7.59528,0.39066 5.66822,0.58072 7.11357,1.08151 6.64506,2.30241 -0.3293,0.85815 -0.59873,4.20509 -0.59873,7.43765 0,6.58151 0.98361,6.11571 -10.71896,5.07615 z"
       id="path863"
       inkscape:connector-curvature="0" />
    <path
       style="fill:#ffcc00;fill-opacity:1;stroke:#000000;stroke-width:2.9288137;stroke-linecap:round;stroke-linejoin:miter;stroke-miterlimit:4;stroke-dasharray:none;stroke-dashoffset:0;stroke-opacity:1"
       d="m 257.85306,365.7216 c 0,-2.38644 -0.48814,-4.33898 -1.08475,-4.33898 -0.59661,0 -1.08475,-1.46441 -1.08475,-3.25424 v -3.25423 h 7.99367 7.99366 l 0.67236,4.06779 c 1.68425,10.18967 0.94034,11.07429 -9.33765,11.10384 l -5.15254,0.0148 z"
       id="path865"
       inkscape:connector-curvature="0" />
    <path
       style="fill:#ffcc00;fill-opacity:1;stroke:#000000;stroke-width:2.9288137;stroke-linecap:round;stroke-linejoin:miter;stroke-miterlimit:4;stroke-dasharray:none;stroke-dashoffset:0;stroke-opacity:1"
       d="m 295.30524,362.87031 c -1.83055,-11.61854 -2.55497,-10.49946 7.6308,-11.78788 l 5.48977,-0.69442 1.26841,6.82049 c 0.69762,3.75127 0.91197,7.16787 0.47633,7.59244 -0.43564,0.42457 -3.80968,1.10877 -7.49786,1.52044 l -6.70579,0.74848 z"
       id="path867"
       inkscape:connector-curvature="0" />
    <path
       style="fill:#ffcc00;fill-opacity:1;stroke:#000000;stroke-width:2.9288137;stroke-linecap:round;stroke-linejoin:miter;stroke-miterlimit:4;stroke-dasharray:none;stroke-dashoffset:0;stroke-opacity:1"
       d="m 331.87818,354.06059 c -0.65722,-2.8339 -1.4927,-5.92135 -1.85662,-6.86099 -0.51969,-1.34183 0.77992,-2.10926 6.05618,-3.57619 3.69483,-1.02725 7.07121,-1.47879 7.50308,-1.00341 1.00407,1.10521 4.65257,12.29122 4.14547,12.70966 -0.93117,0.76837 -11.24931,3.88347 -12.86322,3.88347 -1.24451,0 -2.15408,-1.57011 -2.98489,-5.15254 z"
       id="path869"
       inkscape:connector-curvature="0" />
    <path
       style="fill:#ffcc00;fill-opacity:1;stroke:#000000;stroke-width:2.9288137;stroke-linecap:round;stroke-linejoin:miter;stroke-miterlimit:4;stroke-dasharray:none;stroke-dashoffset:0;stroke-opacity:1"
       d="m 366.94867,340.5554 c -1.57116,-3.62279 -2.71974,-6.70575 -2.5524,-6.85103 0.67306,-0.58435 11.66093,-5.94887 12.18477,-5.94887 0.30955,0 2.03586,2.91808 3.83624,6.48461 l 3.27342,6.48461 -4.3795,2.23425 c -9.52871,4.86119 -9.18272,4.92846 -12.36253,-2.40357 z"
       id="path871"
       inkscape:connector-curvature="0" />
    <path
       style="fill:#ffcc00;fill-opacity:1;stroke:#000000;stroke-width:2.9288137;stroke-linecap:round;stroke-linejoin:miter;stroke-miterlimit:4;stroke-dasharray:none;stroke-dashoffset:0;stroke-opacity:1"
       d="m 399.73951,322.58022 -3.97385,-6.07635 5.61997,-4.19452 5.61997,-4.19452 2.49593,3.04068 c 1.37276,1.67237 3.44972,4.33972 4.61547,5.92744 l 2.11955,2.88677 -5.15785,3.72038 c -2.83682,2.04621 -5.65453,4.00075 -6.26159,4.34343 -0.60706,0.34267 -2.89198,-2.11132 -5.0776,-5.45331 z"
       id="path873"
       inkscape:connector-curvature="0" />
    <path
       style="fill:#ffcc00;fill-opacity:1;stroke:#000000;stroke-width:2.9288137;stroke-linecap:round;stroke-linejoin:miter;stroke-miterlimit:4;stroke-dasharray:none;stroke-dashoffset:0;stroke-opacity:1"
       d="m 427.60633,298.34285 -4.84233,-4.46349 2.12424,-2.85854 c 1.16833,-1.5722 3.06903,-4.05595 4.22379,-5.51945 l 2.09956,-2.66092 6.10703,4.05484 c 3.92289,2.60466 5.829,4.5262 5.32963,5.37278 -1.84891,3.13447 -8.32745,10.53828 -9.22129,10.53828 -0.53807,0 -3.15736,-2.00857 -5.82063,-4.4635 z"
       id="path875"
       inkscape:connector-curvature="0" />
    <path
       style="fill:#ffcc00;fill-opacity:1;stroke:#000000;stroke-width:2.9288137;stroke-linecap:round;stroke-linejoin:miter;stroke-miterlimit:4;stroke-dasharray:none;stroke-dashoffset:0;stroke-opacity:1"
       d="m 448.22594,267.36636 c -2.98305,-1.53486 -5.58423,-2.9323 -5.78039,-3.10544 -0.19617,-0.17313 0.51207,-3.07073 1.57385,-6.4391 1.64933,-5.23226 2.25429,-6.04371 4.15328,-5.57092 1.22251,0.30438 4.30814,0.88493 6.85696,1.29013 2.54882,0.4052 4.82751,1.04949 5.06376,1.43176 0.68566,1.10942 -4.16131,14.58552 -5.35899,14.89968 -0.59661,0.15649 -3.52542,-0.97126 -6.50847,-2.50611 z"
       id="path877"
       inkscape:connector-curvature="0" />
    <path
       style="fill:#ffcc00;fill-opacity:1;stroke:#000000;stroke-width:2.9288137;stroke-linecap:round;stroke-linejoin:miter;stroke-miterlimit:4;stroke-dasharray:none;stroke-dashoffset:0;stroke-opacity:1"
       d="m 448.35515,228.23008 c -0.32205,-1.64068 -0.72693,-4.65735 -0.89975,-6.70372 l -0.31421,-3.72067 6.86625,-1.52608 c 3.77643,-0.83934 7.13528,-1.25705 7.46409,-0.92823 0.32882,0.32882 0.84359,4.03223 1.14392,8.2298 l 0.54606,7.63195 h -7.11041 c -6.8917,0 -7.12842,-0.0918 -7.69595,-2.98305 z"
       id="path879"
       inkscape:connector-curvature="0" />
    <path
       style="fill:#ffcc00;fill-opacity:1;stroke:#000000;stroke-width:2.9288137;stroke-linecap:round;stroke-linejoin:miter;stroke-miterlimit:4;stroke-dasharray:none;stroke-dashoffset:0;stroke-opacity:1"
       d="m 437.27761,191.79939 -3.35511,-5.74385 6.00894,-3.92976 c 3.30491,-2.16137 6.41207,-3.68061 6.9048,-3.37608 0.49273,0.30452 2.32765,3.39001 4.0776,6.85664 l 3.18173,6.30296 -6.3247,2.83836 c -3.47858,1.56109 -6.50772,2.82873 -6.73142,2.81696 -0.22371,-0.0118 -1.91653,-2.60611 -3.76184,-5.76523 z"
       id="path881"
       inkscape:connector-curvature="0" />
    <flowRoot
       xml:space="preserve"
       id="flowRoot883"
       style="font-style:italic;font-variant:normal;font-weight:normal;font-stretch:normal;font-size:24px;line-height:1.25;font-family:sans-serif;-inkscape-font-specification:'sans-serif Italic';letter-spacing:0px;word-spacing:0px;fill:#ffcc00;fill-opacity:1;stroke:none"
       transform="matrix(9.4939057,0,0,9.4939057,-1823.9864,-1476.7001)"><flowRegion
         id="flowRegion885"
         style="font-style:italic;font-variant:normal;font-weight:normal;font-stretch:normal;font-family:sans-serif;-inkscape-font-specification:'sans-serif Italic';fill:#ffcc00"><rect
           id="rect887"
           width="106.30508"
           height="144.27118"
           x="211.52542"
           y="167.05084"
           style="font-style:italic;font-variant:normal;font-weight:normal;font-stretch:normal;font-family:sans-serif;-inkscape-font-specification:'sans-serif Italic';fill:#ffcc00" /></flowRegion><flowPara
         id="flowPara889">1</flowPara></flowRoot>    <path
       style="fill:#000000;fill-opacity:1;stroke:#000000;stroke-width:0.25887299;stroke-linecap:round;stroke-linejoin:miter;stroke-miterlimit:4;stroke-dasharray:none;stroke-dashoffset:0;stroke-opacity:1"
       d="m 47.854462,358.59314 c -0.201335,-0.24796 -0.816159,-0.99915 -1.366275,-1.66932 -0.550115,-0.67017 -1.00021,-1.24243 -1.00021,-1.27168 0,-0.0293 0.156278,0.0121 0.347285,0.0919 0.807027,0.3372 1.624284,0.0254 2.121596,-0.80944 l 0.311607,-0.52309 v 2.32082 c 0,1.27645 -0.01079,2.31875 -0.02397,2.31622 -0.01318,-0.003 -0.188699,-0.20747 -0.390033,-0.45542 z"
       id="path891"
       inkscape:connector-curvature="0" />
    <path
       style="fill:#000000;fill-opacity:1;stroke:#000000;stroke-width:0.25887299;stroke-linecap:round;stroke-linejoin:miter;stroke-miterlimit:4;stroke-dasharray:none;stroke-dashoffset:0;stroke-opacity:1"
       d="m 36.514231,343.43397 c -0.776809,-1.16554 -1.390807,-2.14073 -1.364441,-2.1671 0.02637,-0.0264 0.683511,0.90569 1.46032,2.07122 0.77681,1.16554 1.390808,2.14073 1.364441,2.1671 -0.02637,0.0264 -0.68351,-0.90568 -1.46032,-2.07122 z"
       id="path893"
       inkscape:connector-curvature="0" />
    <path
       style="fill:#000000;fill-opacity:1;stroke:#000000;stroke-width:0.06471825;stroke-linecap:round;stroke-linejoin:miter;stroke-miterlimit:4;stroke-dasharray:none;stroke-dashoffset:0;stroke-opacity:1"
       d="m 34.731966,340.78135 c -0.940169,-1.47523 -2.336917,-3.74441 -2.355217,-3.82634 -0.006,-0.0268 0.62673,0.90581 1.406052,2.07254 1.367253,2.04692 1.41463,2.12158 1.3508,2.1288 -0.03638,0.004 -0.07747,0.0221 -0.09131,0.04 -0.01934,0.025 -0.09117,-0.0711 -0.310323,-0.41497 z"
       id="path895"
       inkscape:connector-curvature="0" />
    <path
       style="fill:#000000;fill-opacity:1;stroke:#000000;stroke-width:0.06471825;stroke-linecap:round;stroke-linejoin:miter;stroke-miterlimit:4;stroke-dasharray:none;stroke-dashoffset:0;stroke-opacity:1"
       d="m 41.786069,350.97147 c -1.026133,-1.37451 -1.500249,-2.02483 -2.451626,-3.36276 -0.532822,-0.74931 -1.378641,-1.96302 -1.378641,-1.97829 0,-0.006 0.02571,-0.0112 0.05713,-0.0112 0.03885,0 0.06158,-0.017 0.07104,-0.0532 0.01127,-0.0431 0.124075,0.11064 0.593657,0.80897 1.15807,1.72222 2.163505,3.17678 3.203157,4.63403 0.360789,0.50571 0.651313,0.92413 0.645609,0.92984 -0.0057,0.006 -0.338849,-0.42963 -0.740322,-0.96741 z"
       id="path897"
       inkscape:connector-curvature="0" />
    <path
       style="fill:#000000;fill-opacity:1;stroke:#000000;stroke-width:0.06471825;stroke-linecap:round;stroke-linejoin:miter;stroke-miterlimit:4;stroke-dasharray:none;stroke-dashoffset:0;stroke-opacity:1"
       d="m 45.158703,355.34566 c -0.105466,-0.13431 -0.196232,-0.25549 -0.201701,-0.26928 -0.0055,-0.0138 0.09808,0.0774 0.2301,0.20264 0.204266,0.19377 0.236149,0.23396 0.213913,0.26966 -0.01437,0.0231 -0.03163,0.0418 -0.03834,0.0416 -0.0067,-2.1e-4 -0.0985,-0.11028 -0.20397,-0.24458 z"
       id="path899"
       inkscape:connector-curvature="0" />
    <path
       style="fill:#000000;fill-opacity:1;stroke:#000000;stroke-width:0.06471825;stroke-linecap:round;stroke-linejoin:miter;stroke-miterlimit:4;stroke-dasharray:none;stroke-dashoffset:0;stroke-opacity:1"
       d=""
       id="path901"
       inkscape:connector-curvature="0" />
    <path
       style="fill:#000000;fill-opacity:1;stroke:#000000;stroke-width:0.25887299;stroke-linecap:round;stroke-linejoin:miter;stroke-miterlimit:4;stroke-dasharray:none;stroke-dashoffset:0;stroke-opacity:1"
       d="m 18.676428,307.38718 c -1.436811,-4.30107 -2.254538,-7.08388 -3.21929,-10.95557 -0.794274,-3.18753 -1.639909,-7.14613 -1.570827,-7.35338 0.0195,-0.0585 0.133909,0.364 0.254238,0.9389 1.109075,5.29883 2.303888,8.77154 3.448994,10.02447 0.462414,0.50596 0.478302,0.54335 0.626524,1.47475 0.653389,4.10578 0.877509,5.41135 1.215312,7.0796 0.212191,1.04792 0.368857,1.92225 0.348146,1.94296 -0.02071,0.0207 -0.517105,-1.39757 -1.103097,-3.15173 z"
       id="path903"
       inkscape:connector-curvature="0" />
    <path
       style="fill:#000000;fill-opacity:1;stroke:#000000;stroke-width:0.36610171;stroke-linecap:round;stroke-linejoin:miter;stroke-miterlimit:4;stroke-dasharray:none;stroke-dashoffset:0;stroke-opacity:1"
       d="m 489.11584,305.39474 c 0.0376,-0.26412 0.21968,-1.48446 0.40454,-2.71186 0.18486,-1.22741 0.33703,-2.45229 0.33814,-2.72196 10e-4,-0.29408 0.24194,-0.99957 0.60146,-1.76271 0.76293,-1.61944 1.44849,-3.59518 2.11175,-6.08596 0.28795,-1.08135 0.52794,-1.85354 0.5333,-1.71597 0.012,0.30841 -0.93404,4.52809 -1.57034,7.00411 -0.92613,3.60381 -2.5651,9.02064 -2.41885,7.99435 z"
       id="path905"
       inkscape:connector-curvature="0" />
    <path
       style="fill:#000000;fill-opacity:1;stroke:#000000;stroke-width:0.36610171;stroke-linecap:round;stroke-linejoin:miter;stroke-miterlimit:4;stroke-dasharray:none;stroke-dashoffset:0;stroke-opacity:1"
       d=""
       id="path907"
       inkscape:connector-curvature="0" />
    <path
       style="fill:#000000;fill-opacity:1;stroke:#000000;stroke-width:0.36610171;stroke-linecap:round;stroke-linejoin:miter;stroke-miterlimit:4;stroke-dasharray:none;stroke-dashoffset:0;stroke-opacity:1"
       d=""
       id="path909"
       inkscape:connector-curvature="0" />
    <path
       style="fill:#000000;fill-opacity:1;stroke:#000000;stroke-width:0.06471825;stroke-linecap:round;stroke-linejoin:miter;stroke-miterlimit:4;stroke-dasharray:none;stroke-dashoffset:0;stroke-opacity:1"
       d="m 465.17495,351.32777 c 0,-0.008 0.16,-0.23158 0.35555,-0.49737 2.86354,-3.89217 4.4026,-6.25487 5.42054,-8.32136 0.26861,-0.54529 0.59639,-1.28298 0.73488,-1.65391 l 0.0447,-0.11985 0.006,0.62998 0.006,0.62997 -0.71036,1.07188 c -1.78558,2.69428 -3.50046,5.13521 -5.39667,7.68152 -0.24299,0.32629 -0.44622,0.59325 -0.45163,0.59325 -0.005,0 -0.01,-0.006 -0.01,-0.0141 z"
       id="path911"
       inkscape:connector-curvature="0" />
  </g>
</svg>
