<?xml version="1.0" encoding="UTF-8"?>
<svg width="583.33" height="381.07" fill-rule="evenodd" image-rendering="optimizeQuality" shape-rendering="geometricPrecision" text-rendering="geometricPrecision" viewBox="0 0 15098 9863" xmlns="http://www.w3.org/2000/svg">
 <path d="m6773 3161 1107-116 1295-56 1371 15 1360 112 1230 217 1011 354 688 501 263 678-283 723-774 647-1133 557-1351 470-1451 354-1401 238-1224 111-906-30-197-5-222 50-248 81-248 117-253 116-233 127-207 106-162 96-663 334-581 308-516 253-425 192-344 107-253 10-157-101-50-228 96-491 298-794 466-986 622-1067 738-1052 840-921 920-688z" fill="#edebc2"/>
 <path d="m1356 3116-56 121-30 339-21 491-5 602-5 642 5 637-5 567v455l-71 192-136-10-192-182-208-283-212-354-182-360-137-333-45-238-10-182-6-273-15-339-10-385-15-419 5-425 10-415 31-379 5-167 5-162 5-152 25-142 30-131 61-106 86-86 126-51 152 31 177 156 182 243 177 293 142 289 111 263 51 182z" fill="#e0b500"/>
 <path d="m1158 7208v-4057l5508-1942 71 3864z" fill="#ffffde"/>
 <path d="m1563 7071v-4056l637-228 638-228 637-227 642-223 638-227 637-228 637-223 637-222 5 480 11 481 5 480 15 486 5 480 10 486 5 486 15 485-652 243-643 253-652 248-642 253-648 247-647 253-648 248z" fill="#f7f5d1"/>
 <path d="m1978 6924v-4051l581-213 587-212 587-207 587-208 581-207 592-207 582-208 591-202 5 480 11 481 5 480 15 486 5 480 10 486 5 486 15 485-597 228-596 227-597 233-592 233-597 232-597 233-592 233z" fill="#f2f0c9"/>
 <path d="m2377 6783v-4057l531-192 536-187 537-192 541-187 531-193 541-187 531-192 541-187 5 480 11 481 5 480 15 486 5 480 10 486 5 486 15 485-546 208-546 212-547 212-541 218-546 212-546 213-547 217z" fill="#edebc2"/>
 <path d="m2782 6646v-4061l485-177 486-167 486-177 490-167 481-177 485-167 486-177 485-167 5 480 11 481 5 480 15 486 5 480 10 486 5 486 15 485-501 192-495 193-496 197-490 197-496 197-491 198-495 197z" fill="#e8e3b8"/>
 <path d="m3181 6494v-4056l435-157 435-157 435-151 435-152 435-157 435-152 435-151 440-152 5 480 11 481 5 480 15 486 5 480 10 486 5 486 15 485-445 172-445 177-445 177-445 182-445 177-445 177-445 177z" fill="#e0dbad"/>
 <path d="m3586 6358v-4057l385-141 384-137 384-136 390-137 384-137 385-136 384-137 384-131 5 480 11 481 5 480 15 486 5 480 10 486 5 486 15 485-394 157-395 162-394 157-390 161-394 157-395 162-394 162z" fill="#dbd6a6"/>
 <path d="m4001 6211v-4051l329-122 333-121 334-121 334-117 334-121 334-122 334-116 333-111 5 480 11 481 5 480 15 486 5 480 10 486 5 486 15 485-344 137-344 146-344 137-338 147-349 141-339 142-344 142z" fill="#d6cf9c"/>
 <path d="m4400 6070v-4057l284-101 283-101 283-101 288-102 279-106 283-96 283-101 283-96 5 480 11 481 5 480 15 486 5 480 10 486 5 486 15 485-298 122-294 121-288 126-288 127-294 121-293 127-293 126z" fill="#d1c994"/>
 <path d="m4805 5933v-4056l1861-668 71 3864z" fill="#ccc48c"/>
 <path d="m2296 9772 107-3804 3024-2746 172 3859z" fill="#ffffde"/>
 <path d="m6115 4208 253-20 668-278 966-455 1143-542 1188-551 1128-470 941-299 637-40 122 172 86 404 50 562 36 652 10 668v627l-10 506-5 329-152 394-369 380-541 338-648 314-718 268-728 223-693 177-602 136-511 91-445 81-395 61-334 45-293 26-248 10-212-10-172-26-41-333-30-531-30-663-26-698-25-663-10-531-5-328z" fill="#ffde00"/>
 <path d="m6429 4173 237-20 638-274 915-445 1083-531 1138-546 1077-455 900-294 622-35 122 172 91 410 51 561 35 658 5 667v628l-10 495-5 319-147 374-344 359-506 329-612 298-682 258-693 228-668 177-582 142-485 91-425 76-374 60-324 46-288 25-238 15-208-5-167-20-45-319-30-531-36-662-20-698-20-668-10-536-5-324z" fill="#fcd900"/>
 <path d="m6737 4127 228-15 602-263 865-435 1031-516 1078-531 1032-445 870-283 607-31 121 172 86 405 51 561 30 658 5 668v627l-10 496-5 313-137 354-329 339-475 309-577 283-642 248-658 217-637 177-561 142-455 91-400 76-359 60-314 51-278 25-233 16-197-6-167-15-50-303-41-516-35-658-20-703-21-667-10-542-5-328z" fill="#fad600"/>
 <path d="m7046 4092 212-10 567-258 819-430 976-506 1022-521 981-435 830-273 597-25 121 172 86 409 51 562 30 657 5 668-5 622-15 491-10 303-127 334-298 324-445 298-537 273-606 243-623 213-607 172-541 146-425 81-374 76-344 61-298 50-268 31-228 20h-197l-162-10-61-289-45-510-36-658-20-698-20-673-10-546-5-334z" fill="#f7d400"/>
 <path d="m7369 4057 198-11 536-253 769-419 915-496 966-506 926-425 799-268 582-25 116 177 81 410 51 571 30 658 5 667-5 623-15 485-10 299-117 313-278 304-415 278-500 258-567 227-587 213-576 177-521 147-395 75-359 76-324 61-288 51-258 30-222 25h-198l-156-5-66-273-46-501-40-652-25-703-21-673v-885z" fill="#f5d100"/>
 <path d="m7678 4011 187-5 496-243 723-404 860-486 905-496 880-415 764-257 567-16 116 177 81 410 51 567 30 657v668l-5 617-10 480-10 289-112 298-253 288-384 268-465 248-526 223-552 202-546 172-506 152-364 71-334 71-308 60-273 51-253 35-218 25-187 11h-157l-76-258-50-496-41-653-20-703-20-677v-896z" fill="#f2cf00"/>
 <path d="m7992 3981 172-10 465-238 668-400 804-475 850-486 834-399 723-253 552-5 121 177 86 409 46 572 30 657v668l-10 612-10 481-10 288-102 273-237 268-349 243-430 238-496 212-511 197-516 172-485 152-334 76-309 71-293 55-258 56-243 35-212 26-187 15h-152l-81-243-56-480-45-643-20-703-21-678v-905z" fill="#f0cc00"/>
 <path d="m8310 3945 162-5 425-232 622-390 744-465 794-476 784-389 693-243 541-10 116 177 81 415 46 571 25 663v667l-10 618-10 475-10 278-91 253-213 248-319 233-394 227-450 203-481 187-490 172-471 156-308 66-289 71-268 56-247 55-233 41-208 30-182 20-151 5-86-227-61-481-40-642-21-703-15-683v-561l5-344z" fill="#f0c900"/>
 <path d="m8624 3900h147l394-223 567-379 693-450 738-461 728-384 658-233h526l116 177 81 415 46 572 25 662v668l-10 612-20 465-10 268-86 233-193 233-283 217-354 213-415 197-440 187-460 172-450 162-278 60-263 66-253 56-233 56-228 40-197 40-182 21-147 15-96-213-60-470-46-637-20-708-15-688v-567l5-354z" fill="#edc700"/>
 <path d="m8943 3864h131l359-217 526-374 632-441 678-450 683-369 622-222 511 5 111 182 76 419 46 572 20 663v667l-10 607-15 466-10 263-76 212-172 212-253 203-319 197-374 187-410 182-435 167-435 167-243 61-242 60-233 56-223 56-212 40-192 41-172 25-147 20-101-197-66-460-50-633-21-708-10-693v-571l10-354z" fill="#ebc400"/>
 <path d="m9256 3829h122l318-213 471-359 576-430 622-440 638-359 586-212 496 10 111 177 76 420 46 576 20 663v668l-10 607-15 465-10 253-71 192-147 192-223 187-283 188-344 177-369 172-405 166-414 167-218 61-212 66-218 55-207 56-208 46-187 40-172 30-141 26-106-182-71-456-46-637-20-708-10-693v-572l10-359z" fill="#e8c200"/>
 <path d="m9565 3793 106 6 288-208 425-354 521-420 567-430 581-349 551-207 481 20 111 182 81 420 46 577 20 662-5 663-10 607-15 460-10 248-61 172-127 172-192 172-248 177-298 167-339 172-374 167-395 167-187 55-192 56-197 56-198 60-197 46-182 45-167 31-142 30-111-167-71-445-50-627-26-708-10-698 5-572 11-364z" fill="#e6bf00"/>
 <path d="m9888 3748 96 10 253-197 370-344 465-410 511-415 531-338 511-198 470 21 111 182 76 424 41 577 20 668-5 662-10 602-15 455-10 243-51 152-106 157-167 157-208 161-263 157-303 167-344 162-374 177-157 51-172 55-182 56-182 61-187 50-177 46-162 40-137 30-121-151-76-440-56-627-20-709-10-703 10-581 10-370z" fill="#e3bd00"/>
 <path d="m10197 3713 81 10 217-193 324-333 410-400 450-405 480-328 481-193 455 26 111 187 76 425 41 581 20 668-5 663-10 602-15 450-10 232-46 137-81 137-137 136-171 152-228 147-263 161-319 167-354 182-126 46-147 56-167 55-167 56-182 50-167 51-162 40-136 36-127-137-81-425-50-627-20-708-11-708 11-582 10-369z" fill="#e3ba00"/>
 <path d="m1184 3187 252-56 607-147 845-227 966-263 966-284 850-253 622-212 273-121" fill="none" stroke="#ffffcf" stroke-width="91.04"/>
 <path d="m1158 3025v1492" fill="none" stroke="#ff9e00" stroke-width="91.04"/>
 <path d="m6682 0 1310 30 1224 107 1107 161 977 233 799 283 607 349 389 395 152 445-283 470-764 476-1103 450-1274 410-1295 328-1148 238-850 116-390-30-55-202 10-354 56-455 85-496 92-491 86-409 55-289 15-96-197 56-480 146-698 208-820 248-875 248-839 232-729 182-526 117h-56l-45 5h-76l-35-10-26-6-20-15-15-10-157-126-157-122-161-121-147-126-132-147-101-167-60-192-6-228 142-202 390-263 601-304 800-308 961-299 1107-237 1229-167z" fill="#ffba00"/>
 <path d="m6682 71 1259 30 1179 101 1057 157 925 218 759 268 582 323 369 375 147 425-274 450-733 450-1052 430-1219 384-1239 309-1098 222-814 107-369-31-56-187 10-334 51-430 86-465 86-465 81-390 55-268 20-96-187 56-460 141-663 197-784 238-839 238-799 222-693 178-506 111-61 5-45 5h-46l-30 5-36-5-25-5-20-10-15-5-147-127-147-111-156-121-137-122-126-141-91-157-56-187v-218l131-197 365-253 576-293 764-299 920-283 1063-233 1168-162z" fill="#ffba00"/>
 <path d="m6692 152 1198 30 1123 91 1007 142 885 202 723 243 552 303 349 349 141 410-258 430-703 430-1006 410-1159 364-1183 288-1042 213-779 96-354-26-56-182 10-313 46-410 81-435 86-435 81-359 50-253 21-86-172 45-435 137-633 187-748 228-799 222-764 213-668 172-480 111-56 5-45 5-46 5-30 10h-61l-20-10-10-5-142-121-142-112-151-111-132-116-121-137-91-146-56-177-5-208 126-187 355-248 556-283 733-283 880-278 1017-223 1118-152z" fill="#ffba00"/>
 <path d="m6702 228 1143 30 1067 86 956 131 835 183 683 227 520 278 334 329 132 385-243 409-668 410-956 384-1107 344-1123 273-997 198-738 91-334-31-55-172 10-293 50-379 76-410 76-405 81-344 56-232 20-76-167 50-415 127-602 182-708 212-764 213-728 202-632 162-461 106-50 5-41 10-40 11-30 10h-36l-25 5h-25l-16-5-131-112-137-106-141-106-127-111-116-132-86-147-51-172-5-197 122-182 339-238 531-273 698-278 834-263 971-212 1068-142z" fill="#ffbd00"/>
 <path d="m6712 298 1087 36 1012 81 905 116 789 167 643 207 495 263 314 304 127 369-233 385-632 389-911 359-1047 324-1067 258-941 182-703 81-319-26-50-161 10-273 45-355 76-384 76-374 71-314 51-217 20-71-157 40-394 122-567 167-673 202-723 202-688 198-602 151-440 101-50 5-41 16-40 10-31 15h-35l-25 5h-21l-10-5-131-101-127-96-136-101-122-107-111-126-81-137-50-167v-187l116-167 324-227 500-258 663-268 799-253 921-208 1016-136z" fill="#ffbd00"/>
 <path d="m6727 379 1027 36 951 76 855 101 748 152 607 187 465 237 294 284 121 344-222 364-602 364-860 339-991 303-1012 238-890 172-663 76-303-30-46-152 10-258 41-324 71-354 70-349 71-288 51-203 20-60-142 45-369 112-541 161-637 193-683 192-653 182-571 147-415 96-46 5-40 15-40 15-31 15-30 10-25 10-26-5h-15l-121-96-122-96-126-96-116-96-107-116-76-132-45-157v-177l106-162 304-217 475-253 632-253 759-243 875-192 966-131z" fill="#ffbd00"/>
 <path d="m6737 460 971 36 901 65 804 97 698 131 566 167 435 217 274 263 111 324-208 339-561 344-809 309-936 283-951 217-845 157-627 66-283-25-51-142 5-238 41-298 71-324 71-319 70-263 51-182 20-50-131 40-349 106-506 152-602 177-647 182-618 172-541 142-389 96-46 5-40 15-36 15-30 21-35 10-26 15h-30l-116-96-117-86-121-96-106-91-101-112-71-121-46-147v-172l101-156 289-208 450-243 602-242 718-233 829-182 911-116z" fill="#ffbf00"/>
 <path d="m6747 541 916 36 839 60 749 81 658 112 536 146 404 197 258 238 101 304-197 323-531 314-764 293-880 258-900 203-794 141-587 66-268-25-40-132 5-217 40-279 66-293 66-288 70-243 51-162 20-50-126 40-324 101-475 137-567 172-602 172-581 162-511 136-370 91-40 10-40 15-36 16-30 25-31 15-25 15-15 5h-10l-106-91-112-86-116-86-101-86-96-101-66-116-45-137v-156l96-152 273-203 425-232 561-233 678-217 784-172 860-112z" fill="#ffbf00"/>
 <path d="m6747 607 860 35 794 56 703 71 612 101 496 126 379 172 233 218 96 283-187 304-496 293-713 268-824 238-840 182-743 131-557 51-248-20-40-122 10-197 40-253 61-263 61-263 66-217 45-152 20-41-116 41-298 96-440 132-526 161-572 157-541 152-481 126-349 91-40 11-41 20-35 20-30 25-31 20-25 21-15 10h-10l-101-86-102-81-106-86-96-81-91-96-61-111-40-127-5-146 91-142 258-192 394-218 536-222 633-213 733-167 809-106z" fill="#ffc200"/>
 <path d="m2392 5933-20 81-5 319v490l10 607 5 648 10 642v1007l-86 121-202 5-283-91-319-157-323-212-279-228-197-233-71-207-10-324-20-531-25-667-5-709v-687l30-577 66-395 111-121 172 86 243 162 268 212 283 233 258 217 212 183 137 111z" fill="#ffde00"/>
 <path d="m2392 5933-25 81-5 319-5 490 10 602 5 648 10 642 5 566 5 435-81 117-187 15-268-76-298-142-304-192-258-207-187-218-65-192-11-319-20-531-20-667-5-713v-693l35-582 66-390 116-121 167 76 228 152 253 197 263 217 232 203 193 167 121 101z" fill="#ffd900"/>
 <path d="m2392 5933-25 81-10 319-5 485 10 602 5 647 10 643 10 566 5 440-75 112-177 15-248-66-273-121-284-172-242-192-172-198-61-182-10-318-15-527-21-662-5-718 5-698 36-582 65-400 117-121 162 76 212 147 233 182 238 202 212 187 177 152 106 91z" fill="#ffd600"/>
 <path d="m2392 5933-30 81-15 319-10 485 10 597 5 642 15 643 10 566 15 440-65 112-157 25-228-51-258-106-263-152-227-172-162-187-56-172-10-313-20-526-20-668-5-718 5-698 35-587 71-400 116-126 157 76 202 136 218 172 217 187 192 172 152 142 91 76z" fill="#ffd400"/>
 <path d="m2392 5933-35 76-15 313-10 481 10 602 5 642 15 643 15 571 15 445-60 112-147 30-207-41-238-91-238-136-207-152-147-172-55-162-11-303-15-526-20-668-5-718 5-703 40-592 71-400 117-126 151 66 187 126 198 157 197 172 167 157 136 126 76 71z" fill="#ffd100"/>
 <path d="m2392 5933-40 76-20 313-5 481 5 597 10 642 15 638 15 566 20 445-50 111-132 41-192-31-217-70-223-117-192-136-137-152-45-152-10-298-15-521-16-673-5-723 10-703 36-597 71-405 116-126 152 66 172 116 182 147 177 156 146 142 117 111 60 61z" fill="#fc0"/>
 <path d="m2392 5933-45 76-25 308-11 481 6 597 10 642 20 643 20 566 25 445-45 101-116 46-172-15-198-56-202-96-172-116-121-137-46-137-10-298-15-521-15-668v-728l5-708 40-597 71-405 121-126 142 61 162 106 162 126 157 142 126 126 96 96 46 51z" fill="#ffc900"/>
 <path d="m2392 5933-50 71-25 308-11 476 5 597 11 642 25 637 25 567 31 450-46 101-106 56h-152l-177-36-182-75-152-102-111-121-41-132-10-293-10-516-15-673-5-728 10-713 41-602 70-410 117-126 141 56 147 96 147 121 131 126 106 112 76 86 31 40z" fill="#ffc700"/>
 <path d="m2392 5933-50 71-31 308-15 476 10 592 11 642 25 637 25 572 36 450-36 101-91 56-142 10-151-20-162-61-137-81-96-106-35-117-15-283-16-516-15-672 5-734 10-718 46-602 71-415 121-131 132 55 136 91 127 107 116 111 86 96 56 71 10 30z" fill="#ffc400"/>
 <path d="m2392 5933-60 71-31 308-15 471 10 592 10 637 26 637 30 572 41 450-26 101-81 66-116 25-137-5-141-46-122-65-86-91-30-112-10-273-10-516-15-672 5-729 10-718 40-612 71-415 116-126 132 45 126 81 112 96 96 97 60 80 41 61-5 15z" fill="#ffc200"/>
 <path d="m769 4704 253-192 450-187 592-198 693-192 728-197 733-192 673-187 572-172-349 369-415 430-450 455-456 455-440 410-389 349-309 238-197 111-202-15-283-91-329-147-329-187-293-223-218-222-96-223z" fill="#ffba00"/>
 <path d="m4957 4289h30l31 10 25 15 30 26 20 25 21 30 10 36 5 40-5 36-10 35-21 30-20 31-30 20-25 20-31 10-30 5-41-5-30-10-30-20-21-20-20-31-10-30-10-35v-76l10-36 10-30 20-25 21-26 30-15 30-10z" fill="#e6dead"/>
 <path d="m4932 4390 35 10 40 26 26 35 15 46-15 45-26 41-40 25-35 15-46-15-30-25-21-41-5-45 5-46 21-35 30-26z" fill="#dbd6b0"/>
 <path d="m4254 4957h25l25 10 21 10 25 20 10 15 15 31 10 30 5 31-5 25-10 30-15 25-10 31-25 15-21 20-25 10-25 5-31-5-30-10-25-20-15-15-21-31-10-25-5-30v-56l5-30 10-31 21-15 15-20 25-10 30-10z" fill="#e6dead"/>
 <path d="m4228 5038 31 5 30 20 25 30 11 46-11 40-25 36-30 20-31 10-35-10-30-20-21-36-5-40 5-46 21-30 30-20z" fill="#dbd6b0"/>
 <path d="m5609 2691 46 10 45 35 16 21 15 30 10 30 5 36-5 25-10 30-15 21-16 25-45 30-46 15-30-5-30-10-31-15-15-15-20-25-10-21-10-30v-61l10-30 10-30 20-21 15-25 31-10 30-10z" fill="#bfb887"/>
 <path d="m5589 2782 30 5 31 20 20 31 10 35-10 40-20 36-31 20-30 10-40-10-31-20-20-36-5-40 5-35 20-31 31-20z" fill="#b3ab82"/>
 <path d="m4805 3045 35 5 41 25 25 36 15 50-15 46-25 40-41 26-35 15-45-15-36-26-25-40-10-46 10-50 25-36 36-25z" fill="#bfb887"/>
 <path d="m4795 3116h20l25 20 11 25 10 36-21 45-45 25-35-10-21-15-15-25v-56l15-25 21-20z" fill="#b3ab82"/>
 <path d="m3910 2645h25l25 10 21 11 25 20 10 20 15 30 10 31 5 40-5 25-10 31-15 20-10 25-25 16-21 15-25 10-25 5-31-5-30-10-30-15-15-16-26-25-10-20-10-31v-65l10-31 10-30 26-20 15-20 30-11 30-10z" fill="#bfb887"/>
 <path d="m3885 2736 30 5 30 21 20 30 11 46-11 30-20 35-30 21-30 10-36-10-30-21-20-35-6-30 6-46 20-30 30-21z" fill="#b3ab82"/>
 <path d="m5726 4704 25 5 30 20 15 31 11 35-11 35-15 31-30 15-25 10-36-10-25-15-20-31v-70l20-31 25-20z" fill="#bfb887"/>
 <path d="m5716 4749 35 21 20 50-20 36-35 20-46-20-15-36 15-50z" fill="#b3ab82"/>
 <path d="m6034 1988h31l30 20 20 30 10 41-10 30-20 36-30 20-31 10-35-10-26-20-20-36v-71l20-30 26-20z" fill="#bfb887"/>
 <path d="m6024 2048 41 11 15 45-15 36-41 20-40-20-16-36 16-45z" fill="#b3ab82"/>
 <path d="m4001 5554h20l25 20 11 25 10 36-10 25-11 30-25 15-20 11-36-11-20-15-15-30v-61l15-25 20-20z" fill="#e6dead"/>
 <path d="m3991 5599 30 15 15 31-15 40-30 20-41-20-10-40 10-31z" fill="#dbd6b0"/>
 <path d="m2989 2999 20 5 26 21 10 25 10 30-10 26-10 30-26 15-20 10-30-10-20-15-21-30v-56l21-25 20-21z" fill="#e6dead"/>
 <path d="m2979 3045 30 15 16 35-16 36-30 20-35-20-15-36 15-35z" fill="#dbd6b0"/>
 <path d="m4497 7385 30 5 30 20 20 30 11 36-11 35-20 36-30 20-30 10-36-10-25-20-20-36v-71l20-30 25-20z" fill="#e6dead"/>
 <path d="m4481 7440 41 10 20 46-20 40-41 21-40-21-15-40 15-46z" fill="#dbd6b0"/>
 <path d="m2630 7820h30l31 20 25 30 10 41-10 35-25 35-31 26-30 10-35-10-31-26-20-35-5-35 5-41 20-30 31-20z" fill="#e6dead"/>
 <path d="m2620 7865 40 20 16 51-16 35-40 21-45-21-11-35 11-51z" fill="#dbd6b0"/>
 <path d="m5023 5210 45 10 36 30 25 41 10 55-10 46-25 45-36 31-45 15-51-15-40-31-26-45-10-46 10-55 26-41 40-30z" fill="#e6dead"/>
 <path d="m5002 5291 26 5 30 20 15 30 10 36-10 25-15 30-30 16-26 10-30-10-25-16-21-30-5-25 5-36 21-30 25-20z" fill="#dbd6b0"/>
 <path d="m5356 6934h21l25 21 15 25 10 35-25 46-46 20-35-10-20-10-15-25v-56l15-25 20-21z" fill="#e6dead"/>
 <path d="m5346 6980 31 5 15 41-15 30-31 15-35-15-10-30 10-41z" fill="#dbd6b0"/>
 <path d="m2691 9120h20l25 20 10 25 11 35-21 46-45 20-36-10-25-10-20-25v-56l20-25 25-20z" fill="#e6dead"/>
 <path d="m2676 9165 25 10 10 36-10 30-25 15-36-15-10-30 10-36z" fill="#dbd6b0"/>
 <path d="m4840 6565 41 5 45 31 11 15 15 25 10 30 5 31-5 25-10 30-15 21-11 25-45 25-41 15-55-15-36-25-20-25-10-21-5-30v-56l5-30 10-25 20-15 36-31z" fill="#e6dead"/>
 <path d="m4815 6646h25l31 20 15 31 10 40-10 26-15 30-31 15-25 10-30-10-20-15-16-30v-66l16-31 20-20z" fill="#dbd6b0"/>
 <path d="m2691 3601 40 5 36 31 25 35 10 56-10 50-25 46-36 25-40 15-31-5-25-10-25-15-15-10-26-46-5-50 5-56 26-35 15-21 25-10 25-5z" fill="#e6dead"/>
 <path d="m2666 3677h25l30 20 15 26 10 35-10 30-15 31-30 25-25 10-36-10-25-25-20-31v-65l20-26 25-20z" fill="#dbd6b0"/>
 <path d="m4082 6494h35l41 16 35 20 35 30 21 31 20 45 10 41 10 50-10 41-10 45-20 36-21 35-35 25-35 25-41 11-35 10-46-10-40-11-36-25-30-25-30-35-15-36-11-45v-91l11-41 15-45 30-31 30-30 36-20 40-16z" fill="#e6dead"/>
 <path d="m4046 6621h26l25 10 20 10 25 25 11 16 15 30 10 30 5 31-5 25-10 30-15 26-11 25-25 15-20 15-25 10-26 5-55-15-36-30-20-25-10-26-5-30v-56l5-30 10-30 20-16 36-35z" fill="#dbd6b0"/>
 <path d="m1871 3414h36l40 15 36 21 35 30 20 30 21 46 10 40 10 51-10 40-10 46-21 35-20 36-35 25-36 25-40 10-36 10-45-10-35-10-41-25-25-25-31-36-15-35-15-46v-91l15-40 15-46 31-30 25-30 41-21 35-15z" fill="#e6dead"/>
 <path d="m1836 3551h25l31 10 20 10 25 20 10 15 15 31 11 30 5 35-16 46-25 45-25 16-20 15-31 10-25 5-51-15-40-31-25-45-10-46v-35l10-30 10-31 15-15 40-30z" fill="#dbd6b0"/>
 <path d="m2883 7036h30l36 10 25 15 30 25 16 26 20 35 10 30 5 46-5 35-10 36-20 25-16 30-30 20-25 21-36 10-30 5-35-5-36-10-30-21-20-20-26-30-15-25-10-36v-81l10-30 15-35 26-26 20-25 30-15 36-10z" fill="#e6dead"/>
 <path d="m2863 7142 35 5 36 25 20 31 10 50-10 46-20 45-36 25-35 16-46-16-35-25-30-45-6-46 6-50 30-31 35-25z" fill="#dbd6b0"/>
 <path d="m2999 6105h26l30 10 25 10 26 15 30 41 15 50-15 46-30 40-26 11-25 15-30 10-26 5-55-15-41-26-30-40-10-46 10-50 30-41 41-25z" fill="#e6dead"/>
 <path d="m2989 6176h26l30 20 15 25 10 36-10 25-15 30-30 16-26 10-35-10-30-16-21-30-5-25 5-36 21-25 30-20z" fill="#dbd6b0"/>
 <path d="m3748 7875h25l26 10 20 16 25 25 10 25 15 36 10 30 6 45-6 31-10 30-15 25-10 31-25 20-20 20-26 10-25 5-30-5-31-10-30-20-15-20-26-31-10-25-10-30v-76l10-30 10-36 26-25 15-25 30-16 31-10z" fill="#e6dead"/>
 <path d="m3723 7981 30 6 30 25 21 30 10 51-10 40-21 41-30 25-30 10-36-10-30-25-20-41-5-40 5-51 20-30 30-25z" fill="#dbd6b0"/>
 <path d="m2458 9691-10-460-10-445-15-445-5-440-15-451 5-450 5-460 25-470 25-51 86-76 122-106 161-127 177-151 193-157 192-162 192-157 207-202 274-253 293-293 303-294 279-283 237-233 162-166 71-71" fill="none" stroke="#fffff0" stroke-width="91.04"/>
 <path d="m2367 9752 3242-2656" fill="none" stroke="#ffd966" stroke-width="91.04"/>
 <path d="m2377 6004-20 480-10 486v1421l10 471 5 465 5 460" fill="none" stroke="#ffb83d" stroke-width="91.04"/>
 <path d="m13075 1877-207 131-415 243-567 308-642 344-673 329-622 288-516 203-339 81-222 35-167 96-96 132-21 141 71 117 177 86 294 20 425-61 526-152 571-187 582-212 566-228 506-232 430-218 303-197 162-152 46-152 35-172 5-177-5-162-30-146-46-96-60-46z" fill="#e3ba00"/>
 <path d="m12822 2013-212 121-425 228-572 293-652 329-673 319-627 273-521 197-334 81-218 36-161 91-96 121-21 142 61 116 167 86 278 25 405-45 511-127 576-172 597-207 587-223 536-232 445-218 324-197 162-152 45-146 30-162 5-172-5-152-30-142-45-91-61-45z" fill="#e6bd00"/>
 <path d="m12569 2150-222 111-430 217-582 284-658 313-682 304-628 263-516 187-333 71-208 30-151 91-97 116-20 137 56 116 152 91 258 41 379-25 491-112 581-157 612-202 612-217 562-238 470-218 339-202 162-152 40-146 31-157 5-162-10-147-31-131-45-86-61-46z" fill="#e8bf00"/>
 <path d="m12316 2276-222 106-435 208-592 268-668 303-688 289-637 252-516 177-329 76-202 31-147 81-96 111-20 126 51 122 141 96 243 50 354-5 470-91 582-151 627-193 638-217 586-233 496-217 354-198 167-151 40-147 26-157 5-157-10-141-31-127-45-86-66-45z" fill="#ebc400"/>
 <path d="m12063 2413-227 96-440 197-597 253-678 288-698 278-632 243-521 167-324 66-197 25-147 81-91 106-25 127 45 116 132 106 222 61 334 10 455-76 582-131 642-187 663-213 612-233 521-222 369-197 172-152 36-147 20-146 5-152-5-137-36-116-45-86-66-41z" fill="#edc700"/>
 <path d="m11821 2554-238 86-450 182-607 243-683 273-703 258-643 233-521 157-318 60-187 26-142 76-91 101-25 121 40 116 122 107 202 70 308 31 440-56 582-121 658-182 688-208 637-227 546-223 390-202 177-152 30-142 20-141v-147l-10-126-30-112-46-80-66-36z" fill="#f2c900"/>
 <path d="m11557 2681-242 81-456 177-612 227-692 258-709 248-647 223-516 151-314 61-182 20-131 66-91 96-25 117 30 111 111 111 187 81 284 51 424-36 582-111 678-172 708-202 668-233 566-223 405-202 177-157 30-136 20-137v-136l-10-122-35-106-51-71-71-40z" fill="#f5cf00"/>
 <path d="m11300 2817-243 66-466 162-622 217-698 243-713 238-647 207-521 147-309 56-177 15-131 66-86 91-26 116 31 111 96 117 172 96 258 65 404-15 587-96 688-162 733-207 693-228 592-227 425-208 182-157 20-131 15-132v-131l-10-111-35-101-51-71-70-41z" fill="#f7d100"/>
 <path d="m11062 2954-253 61-476 151-632 203-708 232-723 223-653 197-516 132-308 55-167 10-126 56-86 86-31 111 20 112 91 116 157 101 233 86 389 10 592-86 708-157 754-202 718-233 617-227 435-208 182-151 21-132 15-126v-122l-10-106-36-91-45-66-71-40z" fill="#fad400"/>
 <path d="m10794 3095-253 56-481 132-637 187-713 217-729 213-657 182-521 126-298 46-162 10-117 56-81 80-30 107 15 111 76 121 137 117 212 101 369 30 592-76 718-151 779-198 744-232 642-228 450-212 188-152 20-132 10-116v-116l-10-96-36-91-50-56-76-36z" fill="#ffd900"/>
</svg>
