<?xml version="1.0" encoding="UTF-8"?>
<svg width="411.07" height="248.48" enable-background="new 0 0 411.066 248.482" viewBox="0 0 411.066 248.482" xmlns="http://www.w3.org/2000/svg">
 <g fill-rule="evenodd">
  <path d="m192.52,2.869 27.062,3.282 25.011,8.406 24.192,10.456 4.1,1.845 4.308-5.329 3.484,4.098 7.177,3.485 8.61.412 7.997,2.05 7.994,2.461 8.405,1.433 8.408,2.05 2.459-2.664 2.255,4.918 2.666-.203-2.666,1.023 2.051,6.358-7.176,11.481 11.687-1.64 9.635.614 7.996,4.509 9.228,1.435 11.89,3.69-1.846,2.668 1.231,3.893-.411,3.076 6.357,4.716 7.996,1.025 7.175,2.869-.821,10.867-1.845,11.479v51.256l5.534,2.873 7.793,3.69 .615,7.38-.412,3.485h-3.894l-2.053,1.845-19.68,16.401-27.269.614-23.166,8.815-38.75,13.328-40.594,9.43-38.749,13.328-22.757,7.38-30.548,1.022-19.681-15.375-43.26-18.656-41.823-22.758-43.053-19.887-3.896-3.897-4.92-1.229-4.716-2.461-1.862-3.67 5.125-1.64 2.256-1.641 3.485-1.845 4.1-1.025 3.074-2.664-3.074-7.996 5.946-14.555-11.892-1.43 2.461-4.716 3.485-1.435 3.074-4.509-1.024-7.998-1.024-7.995-1.026-8.201-2.461.614-2.869-1.233-2.254-1.436 8.813-9.227 10.047-11.07 9.635-9.432 10.662-.409 11.891-.412 10.25-2.869 .41-8.612-.614-6.15-1.436-7.791 6.971-3.076 7.586-1.64 6.151-4.511 6.766-.205 6.149,1.233 6.355,1.021 1.23-3.075h3.076l23.372-7.38 23.782-7.175 22.142-9.225 4.72-.819 3.281,2.05 3.9.819z" fill="#282420"/>
  <path d="m177.96,4.101 1.229,30.752 5.332,29.933-2.667,31.985v91.642l-1.639,32.392-21.323-7.172-20.707-8.82-20.29-8.81-.616-10.047 1.64-11.07-.615-10.251-1.845-4.306 1.229-5.535-.409-5.124 17.632,4.304 1.845,12.917-2.871,12.298-.614,12.507 4.305,3.689 7.176-.205 5.125,2.869 4.511,4.718 7.79-1.028 5.125,3.897 14.557,1.847-11.276-16.606 4.101-7.38-.616-6.973 .409-8.201 1.438-7.38 3.073-1.641 1.231-24.193-2.05-2.254-3.693,1.843-2.459-1.229-12.71-1.641-12.3-3.29-12.096-3.075-4.92,6.147-5.33,3.897-5.742,5.536-1.024-3.896v-16.195l-4.511-3.076-12.096,5.536 2.459-9.431 17.837-.411 14.353,6.97 16.809,1.847 5.743-.614-1.436,9.43 6.97-2.871 4.101-3.28 6.354,1.026 2.871-4.511 1.846-23.166-2.46-23.99-1.436-22.96-.204-2.255 .614-2.461-1.025-1.641 1.641-1.64-1.641-3.074v-2.461l-.411-9.021-21.938,2.458-19.887,7.383-21.527,2.458 1.026-5.533-6.356-9.841 8.406-1.232 21.731-5.944 20.709-8.404 21.55-6.185z" fill="#fff08d"/>
  <path d="m204.4,6.151 22.758,3.895 21.526,6.972 20.092,10.251 .617,10.66-13.942-.819-14.351-3.485-13.737-3.28-5.331,6.559-8.405,1.435-6.151,5.537-1.434-1.642-2.256,2.05v1.847l2.05,2.05-1.231,3.281 .206,2.664 20.503-3.076 22.142,3.69 20.298,2.668 .203,9.226 1.846,11.07-1.435,9.227-11.89-.616-11.072-2.254-11.687-1.438-1.023-18.245-2.667-1.64-6.355-1.641-7.79.819-4.715-4.102-.821.822h-1.846v30.548l-2.459,2.869-4.716-4.509-.616,5.33 2.257,3.485-2.257,4.101v3.69l-4.92.205 2.256,5.946-1.231,3.075 1.231,4.509-1.845,6.151 4.509,2.665 7.791-2.461 9.432.614 8.816-.818 3.484-3.075 5.946.615h5.126l7.996-.205 10.044,2.869 7.996-3.279 1.641,23.987 1.844,21.325-2.05,24.394-10.046,12.098-16.401-.616-13.325,5.74-9.637,3.076-9.635,3.487-9.637,2.459-.205-3.076-3.279.819-.41-3.075-4.102,2.256 1.23-6.149-1.23-2.051 .205-.615-1.024-.41-.412-.616-1.228.412-1.847-1.026-.615,1.845 1.026,5.535-3.076,3.281 2.461,5.125h-.617l-.614-.203-.412.614-1.024-12.917 3.485-14.557-1.23-13.94-.205-11.482 .82-13.121-3.279-10.866-2.256-33.827 1.64-37.11 1.026-34.239 .409-11.07-3.075-10.25 1.025-10.458 1.231-1.229 18.861,2.87 1.03-1.213z" fill="#febf38"/>
  <path d="m199.48,10.455 .203,1.232-.408,1.639-.821.411-.409.615-.82.205 .204.821 2.255,1.022 1.642-5.331 3.074,2.668 1.642,4.305-4.716,3.487 .819,4.098 2.459-2.664 1.644-5.535 4.508.614 1.641,1.845-2.871,3.28 1.23,2.459 2.871-3.28 2.05-6.354 5.125,1.436 .206,1.229-.615,1.64 1.025,1.026 1.639-1.026 1.23-3.483 2.053,1.844 1.638,3.075 1.229-1.229 1.641-.616 1.848.205 .614,3.075 2.664,1.845v3.282l-4.92,2.458 1.435-9.635-4.511,4.509-1.638.207-1.231-.614-1.026-1.232-1.433,1.232-1.438,2.255-1.844-1.232-2.87-3.279-6.972,9.636-1.639.408-1.436-1.022-.409-1.64-.206-1.028 .615-1.434-1.025-.614-13.3,13.12 3.895,21.321-.818,17.632-1.026,1.229-1.638-2.664-1.231-7.996 1.231-9.021-1.026-7.79-.617,1.231-1.844.205-.818-.819-1.231-2.871-1.23-2.873 .204-3.483 1.846-12.506 .412-12.917 8.609-9.636 1.025-.205 1.026.407 .61.821z" fill="#fee696"/>
  <path d="m197.84 22.962-2.664 6.354 2.66-6.354z" fill="#fff"/>
  <path d="m278.01,26.655 .615,12.915-7.176-1.026-.617-3.689-.614-4.92 1.846-3.278h2.05l2.459-2.054 1.44,2.052z" fill="#ba3d9b"/>
  <path d="m327.62,38.543 3.075,7.997-2.461,10.867 1.438,7.994h1.229l-.41,5.741-1.229,5.536 .409,5.944 .409-.614-1.024-.409-.411-.412-2.049-.407v2.461l-.616,1.022v4.922h-.614l-.614-.206-.409.616-.208.614 .41.205 .412.412h1.023l.409,8.815 2.667,9.227-2.46,8.815-7.997,1.845-9.84-3.487-6.562,4.922-6.766-1.026-8.2.614-6.562-.205v-65.581l.412-5.74 8.2,2.667 2.255-4.511 .409-4.308-3.691-1.229-3.69-1.026-3.895-1.023-1.025-12.3 15.992,3.483 15.787,4.308 16.18,3.483z" fill="#fff08d"/>
  <path d="m87.749,35.263 3.69,28.088 2.254,30.753-1.64,28.294-5.535,6.151-5.33,6.148-5.332,6.357 3.689,2.462 6.151-3.076 3.69,3.279 1.025,13.122 1.436,12.712-3.692,12.915-12.915-5.944-.616-19.068-2.869-19.27 1.844-18.248-1.023-15.785-1.026-17.005-1.024-16.197-.41-12.505 1.231-10.252-2.052-12.301 5.33-3.28 5.741-1.436 5.536-2.254 1.847,6.353z" fill="#ffffcf"/>
  <path d="m107.64,29.316 1.024,12.303-12.917,3.896v18.45l1.844,19.683 .821,17.835-.411,9.226-.819-.203-.41,1.024-.616.205 1.435,1.435 1.641.41 1.845-.204 1.026,1.434-.614,2.256 .205,1.843-5.946-.615 1.025-12.097-2.871-10.25 .207-11.688 1.639-1.641 .409-17.63-3.279-17.426-1.435-17.632 4.714,1.434 5.742-1.843 4.1-.207h1.64z" fill="#41aa54"/>
  <path d="m172.63,31.573v1.64l-17.835,3.076-17.016,4.919-18.249,1.026-15.786,2.871 22.963-4.714 22.142-5.537 23.167-3.895 .62.614z" fill="#ffffde"/>
  <path d="m289.28,43.875v2.255l-19.272-2.461-19.068-3.896-19.271-.819-1.23-1.638 1.025-1.641-.41-2.461 18.862,5.125 20.092,2.052 19.28,3.484z" fill="#fff08d"/>
  <path d="m225.73,38.953-5.944,5.127-5.946,4.714-6.972,2.666-3.074-6.152 9.021-2.461 3.689-2.662 3.281-1.643 3.278-1.64 3.283-1.641-.62,3.692z" fill="#ff7f00"/>
  <path d="m173.24,41.619h-1.639l1.23-1.026-1.642-1.228-.82-.822-3.894-.614-4.1,2.461-3.282-2.461-1.435.207-1.229.614-1.026,1.436-20.502,2.254-17.426,3.69-20.094,3.076v-1.436l23.577-4.102 25.013-3.076 23.988-4.714h2.664l.63,5.741z" fill="#fdd0c4"/>
  <path d="m286.21,48.18-8.61.819-9.021,9.433-11.48-4.308-14.558-1.843-14.557-1.233-15.17-.203 2.46-.819 2.254-1.643 2.871-.205 10.25-6.561 19.068.614 18.451,2.256 18.05,3.693z" fill="#c55c2f"/>
  <path d="m155.4,86.518-4.306-.204-5.945.821-4.303-1.847-.822-12.71v-12.71l.822-13.328 3.482-2.256 8.203,5.127 .203-7.177h1.643l1.04,44.284z" fill="#febf38"/>
  <path d="m159.1 86.93h-2.05l-1.231-44.697 3.69 13.943-1.641 16.606 1.23 14.148z" fill="#fdd0c4"/>
  <path d="m173.65,47.77-1.026,11.685 2.871,11.688-.206,12.098-13.531,3.278 2.05-2.664-1.23-8.407-1.846-4.509v-27.064h3.897l4.305-2.46 3.69,2.46 1.04,3.895z" fill="#febf38"/>
  <path d="m136.95,84.88-5.331.407-5.947-1.228-5.739-.206v-12.507l-.412-9.837 1.026-12.714 5.125-.41 4.716-1.229 5.538.614 1.01,37.11z" fill="#febf38"/>
  <path d="m112.97,49.82 2.459,10.662-.205,12.301-.205,11.071-.205-1.027-1.025.616-.82-.203-1.23-11.073-.409-11.891-.412-10.456h2.04z" fill="#febf38"/>
  <path d="m115.02,49.82 .616,7.587-.62-7.587z" fill="#fff"/>
  <path d="m108.66,50.434 1.435,10.456v11.276l.819,11.073-11.479-1.027 .205-10.456-2.461-9.432 .205-10.25 3.69-.614 3.69-.615 3.89-.411z" fill="#41aa54"/>
  <path d="m132.24,52.484-.205,3.076v3.692l2.871,1.23-1.025,3.076 3.076,2.869-2.667,2.255-3.895-.408-3.894-1.847-3.897.615 .617-4.511-1.641-5.535 .614-4.511 2.871,3.076-4.51,7.177 5.33,1.229h5.126l.204-3.483 1.846-3.487-1.435-3.279-5.125-1.232 1.844-1.229 1.845,1.434 2.04-.207z" fill="#ffffcf"/>
  <path d="m278.62,90.208-2.256-1.435h-2.87l-2.462-.822-.409-10.658-1.023-9.432 .409-11.481 8.611-3.896v37.724z" fill="#ba3d9b"/>
  <path d="m317.37,57.407 2.665,11.889-5.946,12.917 4.308,11.891-1.026,2.051 .615,2.871-.206,2.458-2.459.618-3.896-1.847-1.025,2.871-5.33.819-7.176-5.125-4.718,6.561-2.459.411 .615-3.075-1.024-1.232 1.23-1.434v-16.206l4.1-13.123-1.435-15.992 7.995.207 7.585,2.666 7.61-.205z" fill="#793118"/>
  <path d="m315.73,58.432 1.639,7.173-1.023,7.793-1.231,7.173-.205,6.563 2.869,5.328-1.023,6.971-8.405,4.103-5.126-9.841-7.996,4.509 .614-41.824 6.972-.204 6.15,3.485 6.77-1.233z" fill="#e19f75"/>
  <path d="m372.32,66.633 2.664,7.788-3.688,8.612 4.306,7.175h1.026v28.088l-38.34,1.026-6.355-1.026-.22-20.3-2.459-22.144 4.714-19.476 13.737,1.434 11.48,5.948 13.13,2.871z" fill="#feb835"/>
  <path d="m313.68,60.071v37.722l-5.126-1.433h-5.946l-5.125.819-.614-12.505 1.64-13.532-.614-12.71 5.945-1.025 4.306,2.869 5.53-.205z" fill="#fff08d"/>
  <path d="m68.271,59.455 .41,11.688 1.023,11.891 .207,11.07-12.506-3.484-14.146.82h-13.94l-6.561-.412-7.177,1.232-6.151-2.052 9.227-9.43 7.586-8.815 9.635-8.613 10.867-1.025 10.865-1.024 10.661-1.846z" fill="#a8c0aa"/>
  <path d="m312.04,61.711 .819,11.891-.614,11.072 .205,11.481-4.511-.412-4.1-1.026-4.922.412-.614-11.275 .411-12.917 1.435-10.867 4.307-.41 3.896.821 3.67,1.23z" fill="#3f5a8e"/>
  <path d="m118.3,83.854h-1.025l-1.024-22.143 1.433,6.971v8.407l.61,6.765z" fill="#fdd0c4"/>
  <path d="m227.98,64.991 1.847,4.718-1.231,5.944 .411,5.533-4.51,2.054-5.947,2.048-5.125,2.257v-25.22l14.56,2.666z" fill="#793118"/>
  <path d="m62.325,70.323-1.64.205-1.229-.616-1.025-1.23-3.895.409-4.921.821-2.461-3.279 1.231-2.46 2.869,2.46h1.845l2.666-.616 4.101-1.23 1.845,2.869h1.026l-.614,1.847 .202.82z" fill="#dae6db"/>
  <path d="m231.67,82.212h-.615l-.411-16.812 1.846,3.69-1.229,7.587 .4,5.535z" fill="#e19f75"/>
  <path d="m46.745,71.964h6.561l7.586-2.052 4.1,5.742-1.23,2.458-2.05-2.255-1.436-.203-5.125-3.689-6.971,4.508-5.33-2.87-2.052-1.845-3.075-.205-2.255,1.433-.614,1.028-1.231-.615-.821.203-1.845-3.074 4.921.203 1.642-1.64 3.485.205 2.664,1.846 3.076.822z" fill="#dae6db"/>
  <path d="m390.15 84.88-2.256 15.169-2.664-1.23-3.69 1.23-2.666-1.23v-19.477l3.689 1.843 5.127 1.026 2.46 2.668z" fill="#e27426"/>
  <path d="m53.099,83.854 2.872,1.434 5.124-2.461 1.844,3.075-1.229,1.028-9.02-2.05-10.866,4.51-7.994-6.15-4.104.203-3.893,1.845-3.896-1.434 1.64-3.689 5.536,1.434 3.689-1.026 6.356,1.641 6.972,2.668 6.969-1.028z" fill="#dae6db"/>
  <path d="m158.48,89.184 .409,1.436 1.23,1.026-.409,1.843-1.641,1.64-2.051,7.793 1.437,9.223 1.025,7.791-2.461.821-2.459-2.256-2.461-.819-22.757-4.716-3.896,3.69-4.921-4.1-4.509-.207-14.352-1.026-1.229-27.062 20.09,2.668h18.864l20.1,2.278z" fill="#bfe6b8"/>
  <path d="m276.37,91.439 1.024,6.765-2.459,7.175-.616,6.97-16.197,2.05-14.146-5.945-15.992.615-.614-2.664-1.231-5.126 2.872-2.46 .615-4.716v-5.33l1.435-4.511 15.172,2.461 15.377,1.435 14.76,3.27z" fill="#fff08d"/>
  <path d="m393.84,92.875-2.05,2.461 1.845,4.098-1.436,2.668-4.716-.618-3.689,2.668-4.921-1.026v-2.05l4.716-.821 3.28,2.461 3.28-2.255 2.05-16.199 4.716,1.025-4.304,4.307 1.22,3.282z" fill="#f0bf91"/>
  <path d="m225.73,84.88-1.023,8.608 .614,7.177-.205,9.02-6.15,2.05-6.357,2.256-6.149,2.049-.409-8.406 1.024-8.406 .409-7.38 6.151-2.05 5.74-3.075 6.36-1.839z" fill="#ff7f00"/>
  <path d="m175.29,85.288 1.436,11.891-1.845,13.124-.205,10.66-3.689-.819-4.102,2.048-3.894.207-2.258-10.252 1.846-12.917-1.229-10.044 4.305-2.049 4.92-.411 4.71-1.441z" fill="#ff7f00"/>
  <path d="m397.74,95.539-1.641,7.586 .206,8.406-.82,7.791-17.222,1.024 .615-14.966 4.511-.203 4.716-1.846 4.714,1.435 3.076-2.257-2.461-4.918 1.437-3.076 1.639-8.613 2.872,1.847-1.23,4.918-.42,2.881z" fill="#fed95e"/>
  <path d="m19.683,106.82 2.461,2.254 4.099-1.843 2.666,1.229 8.611,2.869 9.021,2.461 8.815,2.255 2.461-2.87-1.642-3.28-.819-3.075 .616-4.511-1.845-3.69 .614-4.51 1.024,1.435 1.025,9.638 1.845,10.659-2.254,9.227-11.482-4.918-12.507-2.461-12.71-2.664-.614-6.973-2.461-7.791 1.025-7.38 2.459,3.485-.614,5.742 .206,4.7z" fill="#fff08d"/>
  <path d="m52.691,94.104 .614,6.357v6.766l1.436,6.151-10.867-.821-10.251-5.945-11.686-.821-1.641-12.917 10.458-.412 11.07,1.232 10.867.401z" fill="#e19f75"/>
  <path d="m70.526,96.155 .409,23.782-2.664,1.026-3.28,3.893-2.052-2.048 .412-5.74-1.229-5.537-.412-5.74-.819-.821-.821-1.23-1.64.412-1.026-10.048 4.306.614h4.716l4.1,1.439z" fill="#febf38"/>
  <path d="m275.96,115.63h-47.974l-1.023-1.232-.614-1.843 1.023-1.232 16.606.618 15.582,2.458 16.39,1.22z" fill="#fff5be"/>
  <path d="m225.11,113.38-2.255,2.048-5.536-1.845 .411,4.715-10.868,2.05v-2.664l17.839-5.946 .614.41-.205.616v.61z" fill="#e27426"/>
  <path d="m262.42,120.35h-45.924l4.511-.203 2.256-.821 3.485-2.254 43.668.614-8.01,2.66z" fill="#c55c2f"/>
  <path d="m58.019,128.96-2.254,1.847v-1.438l-2.255-.817-1.435-.207-4.92,4.511 .616-1.435 2.869-1.231-1.23-1.23-2.664-2.048-3.69-.412-2.871,1.23-2.05-4.306-6.151,1.433-4.716.207-1.024.614 .615,1.233-.205.819 1.229,2.05 2.873-1.847 1.434,1.233 4.101-1.64-.614,5.123 3.893-.205 .207,1.436 3.28,1.23-1.23,1.028-10.251-2.874-10.25-4.306-10.251-1.229v-1.026l8.199-9.02 13.942,1.229 12.71,3.896 12.093,6.17z" fill="#5a8263"/>
  <path d="m278.01,128.96 .204-.615-.41-.205-.41-.41h-1.024l-2.665,20.5 1.23,23.169 .409,21.32-1.436-.614h-2.254l-.617-1.436 1.845-21.731-2.868-25.627-.614-22.346 .614-1.026 1.023-.205 1.026.205-1.641,1.026 3.076,1.229 1.845-3.895 3.281.615-.61,10.06z" fill="#ba3d9b"/>
  <path d="m115.63,122.4 .204.41-.41.205-.41.41-5.332-3.69 .616,8.406-3.689,1.64-8.202,9.634-6.56-.819-5.537,2.255-6.766-.819 3.692-5.332 5.331-7.38 6.151-4.509 2.05-2.461 6.356.819 6.558-.203 5.95,1.42z" fill="#def025"/>
  <path d="m343.82,120.35 .821,1.845 1.231-1.434 1.023-.412 29.114.616v12.3l-.412,13.943-.617,13.12-7.174,2.052-6.766,2.869-7.588,1.231 .412-12.712-3.485-12.096 2.05-11.891-1.023-1.229-.411-1.847-1.845-.614-3.896-.822-4.921-.205-3.075,3.28-3.69,2.461 3.896,3.893-.819,3.693v31.162l-2.05.614-1.641-16.402-1.845-17.014 .819-16.404h3.895l4.717,1.64 3.28-1.66z" fill="#9ed799"/>
  <path d="m329.26,122.81 1.229,16.812 .41,17.221 2.051,16.401-3.28,2.869-4.511.207-4.101,1.433-41.004,13.943-1.435-21.323 2.253-24.807-.818-23.166 2.871-.821 15.375,1.845 15.172-1.639 15.79,1.03z" fill="#94b5d6"/>
  <path d="m395.48,121.58 1.436,12.097-1.845,10.456-.205,12.505h-4.716l-4.305,2.666h-5.332l.206-6.356-1.231-7.587 2.052-6.968-2.256-2.254-.205.614h-1.435l-.614-5.332 1.845-3.895-.615-5.125 5.126-1.847 6.354,1.233 5.72-.2z" fill="#617ab7"/>
  <path d="m71.962,174.88-10.456-4.305-12.712-5.125-11.275-5.537v-23.17l.614,19.27 8.611,7.585 12.096-.615 9.841,4.511 1.845-1.642-2.869-13.531 3.69-14.145-2.052-13.736 1.64-1.025-2.048,18.04 5.945,16.199-2.87,17.22z" fill="#febf38"/>
  <path d="m61.711,129.16-.409-.207 .821-2.459 2.459-.821 2.05-1.229-1.026,1.847-2.05,2.048-1.845.82z" fill="#5a8263"/>
  <path d="m109.68,139.41-5.944,2.668 .614-4.715 9.022-5.744 2.256-6.147-.207,5.33 1.845,7.995-7.58.61z" fill="#017941"/>
  <path d="m326.6,126.09-1.026,14.556-1.64,14.349v15.173l-1.846,1.434-3.485-.203-2.253,1.436-10.663,4.1-12.096.819-10.66,3.69 .409-18.45-1.848-18.247 1.438-18.042 3.279-1.229 14.146.408 12.712,1.642 13.53-1.44z" fill="#170e61"/>
  <path d="m324.34,127.73-.412,14.555-.617,12.71-.614,14.559-12.505,4.304-13.326,2.461-12.917,3.487v-22.144l.821.407 .819.412 1.026-.205 3.484-4.1-3.691-6.971 3.486-4.102 1.231-3.075-3.487-.617-1.023-1.022-.207-4.101 .41-3.897 1.435-3.28 12.302-.41 11.481,1.64 12.3-.62z" fill="#3f5a8e"/>
  <path d="m68.271,164.63-9.431-3.487h-11.277l-7.996-6.151 .616-17.221 11.891,3.69 1.64-.408 13.327-13.942 1.23,37.52z" fill="#3f5a8e"/>
  <path d="m266.12,131.83 .821,6.971-2.05,7.175 .205,7.384-.614,38.337-5.743,2.461-6.765-.616-5.74,2.46-11.89,2.048-12.304,1.847-9.225,6.973-5.332.614-4.509,2.254-5.127,1.229-1.639-1.434 1.229-26.448-1.229-21.527 1.229-26.448 18.658-3.487 19.271-2.458 19.478-2.052 4.715.412 6.15-1.642 .41,5.96z" fill="#fff5be"/>
  <path d="m177.34,136.14-3.075-.414-1.025,4.511-1.23,2.461-5.945,17.221-12.711-1.64-12.505-7.995h-14.353l-11.482-3.896h2.461v-1.847l1.434-1.434 5.332-5.739 6.559-3.282 4.715-6.354 13.736,3.076 13.739,3.485 14.36,1.84z" fill="#bfbf00"/>
  <path d="m265.09,132.85-3.076,18.247 2.462,20.5-1.641,19.067-20.913,4.305-20.709,5.743-20.501,4.919 .412-25.83-2.053-4.308-1.023-12.71 .614-14.147-.205-12.503 18.862-4.309 20.912-.207 19.271-3.279 4.102-1.23 2.663,2.461 .83,3.28z" fill="#3f5a8e"/>
  <path d="m346.9,130.19 1.844,4.306-3.279,7.38 4.305,2.257v2.254l-.819-.205-.409,1.025-.411.408-.82,5.947 5.742,13.735-10.251-.819-1.642,2.666-3.279-6.766 .615-8.406-.206-8.201v-15.992l8.63.41z" fill="#bf3902"/>
  <path d="m22.346,131.83 .614,21.529-1.638,1.843-1.231-2.461-.821-1.436-.203-7.173-1.436-6.561-.616-6.766 1.845.41 1.435,1.026 2.051-.41z" fill="#febf38"/>
  <path d="m248.9,142.08h3.484l3.691-2.461 3.075,2.461-1.641,3.278-4.1-3.485-2.871,1.845-1.64,1.025-.615,13.122 1.229,17.836-1.024,15.992-1.64-1.641 1.229-13.942-1.642-16.195-.203-14.146-8.611,1.024-9.637,1.23-8.199,3.278-.411,15.992 1.229,16.607-1.845,15.378-.819.203-.204-1.024-.616-.412v-45.718l-5.126.41-6.561,1.232-5.33-.614 3.076-1.642 3.485.207 3.484-.618 2.05-.615 2.255-.407 2.051-.614 1.024-4.718-.613-5.944 .204-4.511 1.435-.411 1.026,1.64 .205,1.028v11.274l8.199-.412 8.817-2.664 8.405-1.845 2.46-3.485-2.869-4.511 1.435-3.689h1.024l1.66,10.64z" fill="#def3f8"/>
  <path d="m294.82,143.1v1.026l-.615,1.228 1.025.412 1.845-3.282 2.869-4.098 3.896-1.232 3.485,2.871-3.076,4.102 .207,3.483-.409,3.487-1.231,3.893 .614,3.283 2.05-3.485 1.026-3.895 3.278-2.871 3.075-.412 .821,3.075-1.23,2.257-1.024,1.434 1.231.614 4.509-2.048-.409,3.69v2.051l2.255-1.64 .41,1.229 .819,2.254v2.461l.412,2.254h-3.282l.206-.819-.82-.207-.409-.614-1.026.207-.617.614-1.023-.207-2.255-.82 1.846-2.458-1.231-1.026-3.074,2.255 1.639,4.92-4.099.819-1.23-.407 .615-1.847-1.435.205-1.026,1.642 .205,2.664-2.461.411-2.256-2.05v-9.023l2.256-8.608v-8.202l-5.33,6.354 .206,8.817-1.23,7.995-2.05.616-1.848-1.642v-1.843l-.204-10.046 .412-9.841 1.433-9.636 .614-.615 .412-.821 1.23.409 2.255,2.666-2.255,4.511v3.51z" fill="#b0cde3"/>
  <path d="m35.468,136.75-.614,22.14-9.636-3.897-.614-22.14 3.689,1.436 4.307.408 2.868,2.05z" fill="#793118"/>
  <path d="m147.82,134.08-3.278,4.102-5.127,2.664-3.483,3.282-1.643-1.436-.203.614-.821-.205h-.617l-.819-1.642 2.256-1.434 .819-1.639 1.845-1.437 1.229-2.664 2.256-.207 .617,2.668 2.047-1.436 2.256-2.668 2.64,1.46z" fill="#9e4d07"/>
  <path d="m155.4,136.14-.821,3.276-4.305,1.847-2.461,2.459-2.868,1.845v3.282l-3.69.203 1.229-5.533 5.947-4.718 5.33-3.28h1.231l.4.61z" fill="#dede00"/>
  <path d="m164.63,136.75-3.691,5.737-5.535,5.125-3.895,5.744h-1.026v-6.766l6.971-4.922 4.305-5.533 .819-.618h1.23l.84,1.23z" fill="#dede00"/>
  <path d="m172.01,137.16-.614,3.487-4.306,2.872-1.435,3.483-1.434,3.282-2.256,2.869-.614,3.485-1.641.614-.616-1.435-1.025-.821 2.46-6.968 4.101-6.151 4.1-6.355h1.435l1.025.618 .81,1.02z" fill="#dede00"/>
  <path d="m114.6,139.41-.614,2.257 2.05,3.28-3.074,1.436-.616,1.435 1.641.408 .614.821-2.255,14.764 4.511,15.374-3.895,14.149-4.92-1.642-5.127-1.434-4.509-2.871-1.844-14.764 5.739-12.3-2.869-14.555 3.69.615 2.869-4.305 3.689-1.026h1.847l1.026-2.256 2.04.6z" fill="#793118"/>
  <path d="m172.01 160.94-1.023 1.023 1.638-7.38 2.462-7.175 2.87-6.971-1.231 7.173 4.51 11.481-9.23 1.86z" fill="#21a9b9"/>
  <path d="m97.384,144.74 1.642,12.505-2.256,12.096-.616,12.096-2.664.411 3.076-12.71-3.69-12.71-.411-12.713 4.919,1.02z" fill="#e19f75"/>
  <path d="m170.99,164.22 .614-.82 1.023.206 .616-1.026-.616,11.893-2.869,13.941-.412,12.302-1.639-2.871-2.665,2.871-2.049-1.435-8.202-2.461-8.817-1.436-7.381-3.28 .412-4.304 1.846-6.561-3.897-3.487v-23.78l12.096,1.64 10.046,6.559 11.89,2.05z" fill="#617ab7"/>
  <path d="m87.133,184.11 2.052,6.151 6.149-4.511 3.692,4.304 5.124,2.871 7.177.615 3.278,5.126 2.256-1.025 17.223,6.97 16.606,9.43 18.654,4.511 3.896,3.28 5.74-1.026 3.281,4.923 2.871,1.024 1.435-2.871 2.05-.408 3.28-.617h3.896l1.64-3.279 14.762-3.896 14.558-4.509 14.557-4.922 .409,1.232 1.436.819 .819,1.23 2.051-.821 1.846-1.024 2.05-.412-1.436,1.641 2.254,2.05 1.436.614 6.972-3.076 7.585-1.434 6.357-4.714 .614-1.641-1.231-1.642-1.436-.408-1.229,1.024-2.049-.616-1.642.207 3.076-3.281 5.332.206 4.1.821 .82-.614 .409-.821-.206-1.232 17.019-5.74 16.811-6.559 17.427-4.923 2.255-1.229 4.92-1.232-.819-2.869 5.33-1.024 5.536-1.64h4.714l8.611-1.026 7.996-5.946 9.432,1.436 3.896-3.281 5.738-1.435h5.948l5.737,3.28 10.663,3.282-1.436,8.404-31.778,24.603-42.029-.205-35.468,15.581-34.648,8.817-32.802,13.12-34.855,7.586-20.912,3.076-19.068-4.92-15.99-10.456-42.645-18.452-41.003-22.144-42.233-19.885-3.896-3.689-4.92-1.028-4.1-3.281 3.485-4.511 5.741-1.228 4.714-2.461 23.988,8.201 22.757,11.688 23.355,9.84z" fill="#9a97b9"/>
  <path d="m316.76,200.3 .409.819 1.231.614-.617,1.232-3.278,2.254-2.052-4.101-2.666-.819-.614,2.461-3.485,1.229-1.845-2.05-.614-1.229h-1.231l-.82-.411-1.024,1.64 3.69,2.05-3.281,1.23-2.664-1.025-3.896-2.05-.409-3.484 .615-1.64 2.255.408 1.024.614 .411.618 1.231-1.64 .614-1.847 2.459.821 2.257,1.641 1.638-1.435-.818-2.666 2.87.205 2.666,2.871 2.869,2.459 3.06,1.25z" fill="#c9c5d7"/>
  <path d="m298.51,208.3-.205,2.458-2.87-.614-1.229-.614-2.46-2.461-4.305-1.435-.82-3.279 .203-1.435 2.05-.617 1.026,1.026 8.61,6.97z" fill="#c9c5d7"/>
  <path d="m287.23,213.84-4.921,2.254 .207-6.766-2.873-2.05-3.69-3.689 .82-2.461 2.05,1.642 1.846.205 2.871,2.869 2.459,3.896 1.22,4.11z" fill="#c9c5d7"/>
  <path d="m124.86,211.58 2.461-.408 4.509-1.229 2.05,2.664-1.231,11.07 14.968-12.505 .82,10.046v1.435l-2.461,1.436 2.461,1.022 3.894.618 4.306-5.537 2.46,4.304-1.435,2.054-2.255.614-1.024,1.641 4.1,2.05 7.996-8.613 .818,7.586h1.026l-1.64,2.869-4.101,1.641-3.485.411-.614-6.151-9.228,7.587 1.846-7.792-1.639.205-2.666-.615-1.641-1.23-1.025-2.256 1.23-1.64 .412-2.051-5.128-2.254-11.686,5.537 1.641-10.252-2.46.819-2.666-.614-2.871.207-1.024-1.229-1.231-2.053 1.231-1.434 1.641-.41 .409,1.843 1.23.62z" fill="#c9c5d7"/>
  <path d="m241.92,226.14-.614,1.026v1.843l-1.642.411-1.025.203-1.024-.408-.614-.821 .614-1.641-1.229-1.024-.412-1.232-1.435,1.436-2.051,4.716-3.484-1.229-1.641-5.537-2.664,5.74-2.667-.203-6.561.41-1.436,2.254-2.459,3.69-3.076-2.05v-.819l-.82-.41 .206-1.025-2.051-1.229-2.05,4.098-2.664-2.255-2.667,1.232-1.435,4.098-3.895-1.64-2.461,2.051-2.255,2.871-3.485-.614-1.23-1.025 .614-1.847-1.025-1.435-2.256,1.847-2.459,2.461-2.664-1.025-3.283-2.05 2.871-3.487 4.92,3.689 2.871-4.511 3.281-.821 .409,1.847 1.231,2.05 3.28-1.229 .614-7.38 4.102,4.305 3.483-.821 1.438-7.38 3.688,5.125 1.641-.821 1.024-1.844 2.05.409 2.052.615-1.641,2.255 1.231.821 2.459-1.23-1.026-4.716 3.896,1.229 .411,2.668 2.87-1.435 1.64.409 4.305-.203-.818-7.177 4.715,1.845 1.229,1.024-1.844,2.254 2.05.614 3.485-3.278-2.051-9.432 7.176,2.461 .615-1.229 .821,1.229h.819v11.25z" fill="#e5e2ec"/>
 </g>
</svg>
